Commissioner-HairStraightWedge.ufo
<glyph name="dollar" format="2">
  <advance width="552"/>
  <unicode hex="0024"/>
  <outline>
    <contour>
      <point x="290" y="-9" type="curve" smooth="yes"/>
      <point x="438" y="-9"/>
      <point x="504" y="77"/>
      <point x="504" y="177" type="curve" smooth="yes"/>
      <point x="504" y="265"/>
      <point x="453" y="313"/>
      <point x="289" y="368" type="curve" smooth="yes"/>
      <point x="155" y="413"/>
      <point x="98" y="443"/>
      <point x="98" y="523" type="curve" smooth="yes"/>
      <point x="98" y="623"/>
      <point x="181" y="664"/>
      <point x="271" y="664" type="curve"/>
      <point x="327" y="664"/>
      <point x="400" y="648"/>
      <point x="456" y="608" type="curve"/>
      <point x="462" y="642" type="line"/>
      <point x="427" y="668"/>
      <point x="353" y="696"/>
      <point x="274" y="696" type="curve" smooth="yes"/>
      <point x="140" y="696"/>
      <point x="66" y="619"/>
      <point x="66" y="523" type="curve" smooth="yes"/>
      <point x="66" y="425"/>
      <point x="142" y="384"/>
      <point x="276" y="340" type="curve" smooth="yes"/>
      <point x="398" y="300"/>
      <point x="472" y="266"/>
      <point x="472" y="178" type="curve" smooth="yes"/>
      <point x="472" y="64"/>
      <point x="390" y="23"/>
      <point x="290" y="23" type="curve"/>
      <point x="209" y="23"/>
      <point x="142" y="45"/>
      <point x="79" y="79" type="curve"/>
      <point x="74" y="46" type="line"/>
      <point x="116" y="20"/>
      <point x="205" y="-9"/>
    </contour>
    <contour>
      <point x="266" y="-137" type="curve"/>
      <point x="296" y="-137" type="line"/>
      <point x="296" y="1"/>
      <point x="296" y="154"/>
      <point x="296" y="192" type="curve"/>
      <point x="296" y="474" type="line"/>
      <point x="296" y="512"/>
      <point x="296" y="665"/>
      <point x="296" y="803" type="curve"/>
      <point x="266" y="803" type="line"/>
      <point x="266" y="665"/>
      <point x="266" y="512"/>
      <point x="266" y="474" type="curve"/>
      <point x="266" y="192" type="line"/>
      <point x="266" y="154"/>
      <point x="266" y="1"/>
    </contour>
  </outline>
</glyph>
<glyph name="plus" format="2">
  <advance width="580"/>
  <unicode hex="002B"/>
  <outline>
    <contour>
      <point x="275" y="65" type="curve"/>
      <point x="305" y="65" type="line"/>
      <point x="305" y="123"/>
      <point x="305" y="190"/>
      <point x="305" y="225" type="curve"/>
      <point x="305" y="365" type="line"/>
      <point x="305" y="400"/>
      <point x="305" y="467"/>
      <point x="305" y="525" type="curve"/>
      <point x="275" y="525" type="line"/>
      <point x="275" y="467"/>
      <point x="275" y="400"/>
      <point x="275" y="365" type="curve"/>
      <point x="275" y="225" type="line"/>
      <point x="275" y="190"/>
      <point x="275" y="123"/>
    </contour>
    <contour>
      <point x="70" y="280" type="line"/>
      <point x="128" y="280"/>
      <point x="195" y="280"/>
      <point x="230" y="280" type="curve"/>
      <point x="350" y="280" type="line"/>
      <point x="385" y="280"/>
      <point x="452" y="280"/>
      <point x="510" y="280" type="curve"/>
      <point x="510" y="310" type="line"/>
      <point x="452" y="310"/>
      <point x="385" y="310"/>
      <point x="350" y="310" type="curve"/>
      <point x="230" y="310" type="line"/>
      <point x="195" y="310"/>
      <point x="128" y="310"/>
      <point x="70" y="310" type="curve"/>
    </contour>
  </outline>
</glyph>
<glyph name="hyphen" format="2">
  <advance width="420"/>
  <unicode hex="002D"/>
  <outline>
    <contour>
      <point x="70" y="280" type="line"/>
      <point x="121" y="280"/>
      <point x="179" y="280"/>
      <point x="210" y="280" type="curve"/>
      <point x="241" y="280"/>
      <point x="299" y="280"/>
      <point x="350" y="280" type="curve"/>
      <point x="350" y="310" type="line"/>
      <point x="299" y="310"/>
      <point x="241" y="310"/>
      <point x="210" y="310" type="curve"/>
      <point x="179" y="310"/>
      <point x="121" y="310"/>
      <point x="70" y="310" type="curve"/>
    </contour>
  </outline>
</glyph>
<glyph name="period" format="2">
  <advance width="214"/>
  <unicode hex="002E"/>
  <outline>
    <contour>
      <point x="107" y="-9" type="curve" smooth="yes"/>
      <point x="135" y="-9"/>
      <point x="152" y="8"/>
      <point x="152" y="36" type="curve" smooth="yes"/>
      <point x="152" y="65"/>
      <point x="135" y="81"/>
      <point x="107" y="81" type="curve" smooth="yes"/>
      <point x="80" y="81"/>
      <point x="62" y="65"/>
      <point x="62" y="36" type="curve" smooth="yes"/>
      <point x="62" y="8"/>
      <point x="80" y="-9"/>
    </contour>
  </outline>
</glyph>
<glyph name="one" format="2">
  <advance width="408"/>
  <unicode hex="0031"/>
  <outline>
    <contour>
      <point x="49" y="525" type="line"/>
      <point x="122" y="567"/>
      <point x="194" y="610"/>
      <point x="267" y="652" type="curve"/>
      <point x="267" y="686" type="line"/>
      <point x="191" y="642"/>
      <point x="116" y="599"/>
      <point x="40" y="555" type="curve"/>
    </contour>
    <contour>
      <point x="253" y="0" type="curve"/>
      <point x="283" y="0" type="line"/>
      <point x="283" y="75"/>
      <point x="283" y="140"/>
      <point x="283" y="221" type="curve"/>
      <point x="283" y="447" type="line"/>
      <point x="283" y="532"/>
      <point x="283" y="612"/>
      <point x="283" y="684" type="curve"/>
      <point x="267" y="686" type="line"/>
      <point x="253" y="668" type="line"/>
      <point x="253" y="594"/>
      <point x="253" y="510"/>
      <point x="253" y="447" type="curve"/>
      <point x="253" y="221" type="line"/>
      <point x="253" y="140"/>
      <point x="253" y="75"/>
    </contour>
  </outline>
</glyph>
<glyph name="two" format="2">
  <advance width="543"/>
  <unicode hex="0032"/>
  <outline>
    <contour>
      <point x="53" y="0" type="line"/>
      <point x="483" y="0" type="line"/>
      <point x="483" y="30" type="line"/>
      <point x="401" y="30"/>
      <point x="318" y="30"/>
      <point x="236" y="30" type="curve"/>
      <point x="85" y="30" type="line"/>
      <point x="93" y="22" type="line"/>
      <point x="214" y="130" type="line"/>
      <point x="376" y="275"/>
      <point x="466" y="389"/>
      <point x="466" y="508" type="curve" smooth="yes"/>
      <point x="466" y="623"/>
      <point x="393" y="696"/>
      <point x="266" y="696" type="curve" smooth="yes"/>
      <point x="190" y="696"/>
      <point x="108" y="668"/>
      <point x="50" y="632" type="curve"/>
      <point x="56" y="598" type="line"/>
      <point x="127" y="644"/>
      <point x="201" y="664"/>
      <point x="266" y="664" type="curve"/>
      <point x="379" y="664"/>
      <point x="435" y="611"/>
      <point x="435" y="507" type="curve" smooth="yes"/>
      <point x="435" y="393"/>
      <point x="343" y="284"/>
      <point x="186" y="145" type="curve"/>
      <point x="142" y="106"/>
      <point x="97" y="66"/>
      <point x="53" y="27" type="curve"/>
    </contour>
  </outline>
</glyph>
<glyph name="three" format="2">
  <advance width="561"/>
  <unicode hex="0033"/>
  <outline>
    <contour>
      <point x="274" y="-9" type="curve" smooth="yes"/>
      <point x="425" y="-9"/>
      <point x="501" y="75"/>
      <point x="501" y="179" type="curve" smooth="yes"/>
      <point x="501" y="292"/>
      <point x="412" y="349"/>
      <point x="339" y="361" type="curve"/>
      <point x="339" y="367" type="line"/>
      <point x="412" y="385"/>
      <point x="475" y="449"/>
      <point x="475" y="535" type="curve" smooth="yes"/>
      <point x="475" y="635"/>
      <point x="389" y="696"/>
      <point x="279" y="696" type="curve" smooth="yes"/>
      <point x="204" y="696"/>
      <point x="124" y="666"/>
      <point x="67" y="627" type="curve"/>
      <point x="73" y="592" type="line"/>
      <point x="142" y="641"/>
      <point x="217" y="664"/>
      <point x="280" y="664" type="curve"/>
      <point x="373" y="664"/>
      <point x="444" y="624"/>
      <point x="444" y="535" type="curve" smooth="yes"/>
      <point x="444" y="448"/>
      <point x="379" y="378"/>
      <point x="224" y="378" type="curve"/>
      <point x="208" y="378"/>
      <point x="192" y="378"/>
      <point x="176" y="378" type="curve"/>
      <point x="176" y="348" type="line"/>
      <point x="192" y="348"/>
      <point x="208" y="348"/>
      <point x="224" y="348" type="curve"/>
      <point x="378" y="348"/>
      <point x="470" y="288"/>
      <point x="470" y="179" type="curve" smooth="yes"/>
      <point x="470" y="89"/>
      <point x="411" y="23"/>
      <point x="273" y="23" type="curve"/>
      <point x="206" y="23"/>
      <point x="129" y="41"/>
      <point x="56" y="83" type="curve"/>
      <point x="50" y="50" type="line"/>
      <point x="110" y="16"/>
      <point x="196" y="-9"/>
    </contour>
  </outline>
</glyph>
<glyph name="five" format="2">
  <advance width="568"/>
  <unicode hex="0035"/>
  <outline>
    <contour>
      <point x="272" y="-9" type="curve" smooth="yes"/>
      <point x="422" y="-9"/>
      <point x="508" y="81"/>
      <point x="508" y="217" type="curve" smooth="yes"/>
      <point x="508" y="365"/>
      <point x="406" y="433"/>
      <point x="285" y="433" type="curve" smooth="yes"/>
      <point x="225" y="433"/>
      <point x="173" y="416"/>
      <point x="132" y="391" type="curve"/>
      <point x="126" y="391" type="line"/>
      <point x="126" y="447" type="line"/>
      <point x="126" y="520"/>
      <point x="126" y="594"/>
      <point x="126" y="668" type="curve"/>
      <point x="113" y="654" type="line"/>
      <point x="217" y="654" type="line"/>
      <point x="298" y="654"/>
      <point x="381" y="654"/>
      <point x="463" y="654" type="curve"/>
      <point x="463" y="684" type="line"/>
      <point x="96" y="684" type="line"/>
      <point x="96" y="612"/>
      <point x="96" y="532"/>
      <point x="96" y="447" type="curve"/>
      <point x="96" y="346" type="line"/>
      <point x="112" y="344" type="line"/>
      <point x="175" y="389"/>
      <point x="224" y="401"/>
      <point x="285" y="401" type="curve"/>
      <point x="389" y="401"/>
      <point x="477" y="353"/>
      <point x="477" y="217" type="curve" smooth="yes"/>
      <point x="477" y="95"/>
      <point x="408" y="23"/>
      <point x="272" y="23" type="curve"/>
      <point x="205" y="23"/>
      <point x="129" y="41"/>
      <point x="56" y="83" type="curve"/>
      <point x="50" y="50" type="line"/>
      <point x="110" y="16"/>
      <point x="194" y="-9"/>
    </contour>
  </outline>
</glyph>
<glyph name="six" format="2">
  <advance width="599"/>
  <unicode hex="0036"/>
  <outline>
    <contour>
      <point x="312" y="-9" type="curve" smooth="yes"/>
      <point x="460" y="-9"/>
      <point x="539" y="102"/>
      <point x="539" y="221" type="curve" smooth="yes"/>
      <point x="539" y="344"/>
      <point x="457" y="435"/>
      <point x="318" y="435" type="curve" smooth="yes"/>
      <point x="238" y="435"/>
      <point x="167" y="405"/>
      <point x="104" y="346" type="curve"/>
      <point x="92" y="347" type="line"/>
      <point x="90" y="333"/>
      <point x="90" y="315"/>
      <point x="92" y="294" type="curve"/>
      <point x="171" y="379"/>
      <point x="247" y="403"/>
      <point x="318" y="403" type="curve"/>
      <point x="451" y="403"/>
      <point x="508" y="321"/>
      <point x="508" y="221" type="curve" smooth="yes"/>
      <point x="508" y="121"/>
      <point x="450" y="23"/>
      <point x="312" y="23" type="curve"/>
      <point x="170" y="23"/>
      <point x="96" y="128"/>
      <point x="96" y="321" type="curve" smooth="yes"/>
      <point x="96" y="541"/>
      <point x="167" y="664"/>
      <point x="319" y="664" type="curve"/>
      <point x="378" y="664"/>
      <point x="440" y="646"/>
      <point x="493" y="608" type="curve"/>
      <point x="500" y="642" type="line"/>
      <point x="453" y="674"/>
      <point x="386" y="696"/>
      <point x="319" y="696" type="curve" smooth="yes"/>
      <point x="148" y="696"/>
      <point x="65" y="554"/>
      <point x="65" y="322" type="curve" smooth="yes"/>
      <point x="65" y="109"/>
      <point x="156" y="-9"/>
    </contour>
  </outline>
</glyph>
<glyph name="greater" format="2">
  <advance width="560"/>
  <unicode hex="003E"/>
  <outline>
    <contour>
      <point x="70" y="88" type="line"/>
      <point x="127" y="114"/>
      <point x="183" y="139"/>
      <point x="231" y="161" type="curve"/>
      <point x="331" y="206" type="line"/>
      <point x="377" y="227"/>
      <point x="433" y="252"/>
      <point x="490" y="278" type="curve"/>
      <point x="490" y="310" type="line"/>
      <point x="433" y="336"/>
      <point x="377" y="361"/>
      <point x="331" y="382" type="curve"/>
      <point x="231" y="427" type="line"/>
      <point x="183" y="449"/>
      <point x="127" y="474"/>
      <point x="70" y="500" type="curve"/>
      <point x="70" y="467" type="line"/>
      <point x="150" y="431"/>
      <point x="235" y="393"/>
      <point x="317" y="356" type="curve"/>
      <point x="448" y="297" type="line"/>
      <point x="448" y="291" type="line"/>
      <point x="317" y="232" type="line"/>
      <point x="235" y="195"/>
      <point x="150" y="157"/>
      <point x="70" y="121" type="curve"/>
    </contour>
  </outline>
</glyph>
<glyph name="C" format="2">
  <advance width="686"/>
  <unicode hex="0043"/>
  <anchor x="401" y="0" name="bottom"/>
  <anchor x="391" y="713" name="top"/>
  <outline>
    <contour>
      <point x="417" y="-9" type="curve" smooth="yes"/>
      <point x="491" y="-9"/>
      <point x="569" y="8"/>
      <point x="625" y="47" type="curve"/>
      <point x="619" y="82" type="line"/>
      <point x="559" y="40"/>
      <point x="487" y="24"/>
      <point x="415" y="24" type="curve"/>
      <point x="204" y="24"/>
      <point x="93" y="173"/>
      <point x="93" y="358" type="curve" smooth="yes"/>
      <point x="93" y="560"/>
      <point x="221" y="692"/>
      <point x="402" y="692" type="curve"/>
      <point x="474" y="692"/>
      <point x="548" y="674"/>
      <point x="625" y="630" type="curve"/>
      <point x="630" y="665" type="line"/>
      <point x="584" y="691"/>
      <point x="499" y="725"/>
      <point x="403" y="725" type="curve" smooth="yes"/>
      <point x="207" y="725"/>
      <point x="60" y="576"/>
      <point x="60" y="359" type="curve" smooth="yes"/>
      <point x="60" y="153"/>
      <point x="195" y="-9"/>
    </contour>
  </outline>
</glyph>
<glyph name="D" format="2">
  <advance width="739"/>
  <unicode hex="0044"/>
  <anchor x="350" y="0" name="bottom"/>
  <anchor x="370" y="357" name="center"/>
  <anchor x="350" y="713" name="top"/>
  <outline>
    <contour>
      <point x="110" y="0" type="curve"/>
      <point x="186" y="0"/>
      <point x="237" y="0"/>
      <point x="315" y="0" type="curve"/>
      <point x="579" y="0"/>
      <point x="679" y="159"/>
      <point x="679" y="360" type="curve" smooth="yes"/>
      <point x="679" y="580"/>
      <point x="556" y="713"/>
      <point x="334" y="713" type="curve"/>
      <point x="262" y="713"/>
      <point x="204" y="713"/>
      <point x="110" y="713" type="curve"/>
      <point x="110" y="632"/>
      <point x="110" y="562"/>
      <point x="110" y="475" type="curve"/>
      <point x="110" y="238" type="line"/>
      <point x="110" y="151"/>
      <point x="110" y="81"/>
    </contour>
    <contour>
      <point x="142" y="31" type="line"/>
      <point x="142" y="99"/>
      <point x="142" y="162"/>
      <point x="142" y="238" type="curve"/>
      <point x="142" y="475" type="line"/>
      <point x="142" y="551"/>
      <point x="142" y="614"/>
      <point x="142" y="682" type="curve"/>
      <point x="329" y="682" type="line"/>
      <point x="548" y="682"/>
      <point x="646" y="556"/>
      <point x="646" y="361" type="curve" smooth="yes"/>
      <point x="646" y="173"/>
      <point x="560" y="31"/>
      <point x="316" y="31" type="curve"/>
    </contour>
  </outline>
</glyph>
<glyph name="G" format="2">
  <advance width="736"/>
  <unicode hex="0047"/>
  <anchor x="401" y="0" name="bottom"/>
  <anchor x="401" y="713" name="top"/>
  <outline>
    <contour>
      <point x="436" y="-9" type="curve" smooth="yes"/>
      <point x="526" y="-9"/>
      <point x="611" y="15"/>
      <point x="658" y="37" type="curve"/>
      <point x="654" y="74" type="line"/>
      <point x="589" y="38"/>
      <point x="505" y="24"/>
      <point x="436" y="24" type="curve"/>
      <point x="197" y="24"/>
      <point x="93" y="170"/>
      <point x="93" y="359" type="curve" smooth="yes"/>
      <point x="93" y="562"/>
      <point x="220" y="692"/>
      <point x="408" y="692" type="curve"/>
      <point x="483" y="692"/>
      <point x="559" y="674"/>
      <point x="640" y="630" type="curve"/>
      <point x="645" y="665" type="line"/>
      <point x="598" y="691"/>
      <point x="508" y="725"/>
      <point x="408" y="725" type="curve" smooth="yes"/>
      <point x="202" y="725"/>
      <point x="60" y="572"/>
      <point x="60" y="359" type="curve" smooth="yes"/>
      <point x="60" y="153"/>
      <point x="187" y="-9"/>
    </contour>
    <contour>
      <point x="626" y="37" type="curve"/>
      <point x="658" y="37" type="line"/>
      <point x="658" y="105"/>
      <point x="658" y="150"/>
      <point x="658" y="200" type="curve"/>
      <point x="658" y="260"/>
      <point x="658" y="302"/>
      <point x="658" y="349" type="curve"/>
      <point x="626" y="349" type="line"/>
      <point x="626" y="302"/>
      <point x="626" y="260"/>
      <point x="626" y="200" type="curve"/>
      <point x="626" y="150"/>
      <point x="626" y="105"/>
    </contour>
  </outline>
</glyph>
<glyph name="H" format="2">
  <advance width="749"/>
  <unicode hex="0048"/>
  <anchor x="375" y="0" name="bottom"/>
  <anchor x="375" y="357" name="center"/>
  <anchor x="375" y="713" name="top"/>
  <anchor x="36" y="713" name="topleft"/>
  <outline>
    <contour>
      <point x="607" y="0" type="curve"/>
      <point x="639" y="0" type="line"/>
      <point x="639" y="81"/>
      <point x="639" y="151"/>
      <point x="639" y="238" type="curve"/>
      <point x="639" y="475" type="line"/>
      <point x="639" y="562"/>
      <point x="639" y="632"/>
      <point x="639" y="713" type="curve"/>
      <point x="607" y="713" type="line"/>
      <point x="607" y="632"/>
      <point x="607" y="562"/>
      <point x="607" y="475" type="curve"/>
      <point x="607" y="238" type="line"/>
      <point x="607" y="151"/>
      <point x="607" y="81"/>
    </contour>
    <contour>
      <point x="110" y="0" type="curve"/>
      <point x="142" y="0" type="line"/>
      <point x="142" y="81"/>
      <point x="142" y="151"/>
      <point x="142" y="238" type="curve"/>
      <point x="142" y="475" type="line"/>
      <point x="142" y="562"/>
      <point x="142" y="632"/>
      <point x="142" y="713" type="curve"/>
      <point x="110" y="713" type="line"/>
      <point x="110" y="632"/>
      <point x="110" y="562"/>
      <point x="110" y="475" type="curve"/>
      <point x="110" y="238" type="line"/>
      <point x="110" y="151"/>
      <point x="110" y="81"/>
    </contour>
    <contour>
      <point x="121" y="347" type="line"/>
      <point x="631" y="347" type="line"/>
      <point x="631" y="378" type="line"/>
      <point x="121" y="378" type="line"/>
    </contour>
  </outline>
</glyph>
<glyph name="I" format="2">
  <advance width="252"/>
  <unicode hex="0049"/>
  <anchor x="126" y="0" name="bottom"/>
  <anchor x="142" y="0" name="ogonek"/>
  <anchor x="126" y="713" name="top"/>
  <anchor x="37" y="713" name="topleft"/>
  <outline>
    <contour>
      <point x="110" y="0" type="curve"/>
      <point x="142" y="0" type="line"/>
      <point x="142" y="81"/>
      <point x="142" y="151"/>
      <point x="142" y="238" type="curve"/>
      <point x="142" y="475" type="line"/>
      <point x="142" y="562"/>
      <point x="142" y="632"/>
      <point x="142" y="713" type="curve"/>
      <point x="110" y="713" type="line"/>
      <point x="110" y="632"/>
      <point x="110" y="562"/>
      <point x="110" y="475" type="curve"/>
      <point x="110" y="238" type="line"/>
      <point x="110" y="151"/>
      <point x="110" y="81"/>
    </contour>
  </outline>
</glyph>
<glyph name="J" format="2">
  <advance width="269"/>
  <unicode hex="004A"/>
  <anchor x="142" y="0" name="bottom"/>
  <anchor x="142" y="713" name="top"/>
  <outline>
    <contour>
      <point x="25" y="-160" type="curve"/>
      <point x="69" y="-160" type="line"/>
      <point x="114" y="-115"/>
      <point x="159" y="-54"/>
      <point x="159" y="52" type="curve" smooth="yes"/>
      <point x="159" y="121"/>
      <point x="159" y="192"/>
      <point x="159" y="269" type="curve"/>
      <point x="159" y="475" type="line"/>
      <point x="159" y="562"/>
      <point x="159" y="632"/>
      <point x="159" y="713" type="curve"/>
      <point x="127" y="713" type="line"/>
      <point x="127" y="632"/>
      <point x="127" y="562"/>
      <point x="127" y="475" type="curve"/>
      <point x="127" y="238" type="line"/>
      <point x="127" y="59" type="line"/>
      <point x="126" y="-47"/>
      <point x="87" y="-99"/>
    </contour>
  </outline>
</glyph>
<glyph name="N" format="2">
  <advance width="757"/>
  <unicode hex="004E"/>
  <anchor x="379" y="0" name="bottom"/>
  <anchor x="379" y="713" name="top"/>
  <outline>
    <contour>
      <point x="110" y="0" type="curve"/>
      <point x="142" y="0" type="line"/>
      <point x="142" y="81"/>
      <point x="142" y="151"/>
      <point x="142" y="238" type="curve"/>
      <point x="142" y="655" type="line"/>
      <point x="146" y="655" type="line"/>
      <point x="331" y="396" type="line"/>
      <point x="442" y="241"/>
      <point x="532" y="116"/>
      <point x="615" y="0" type="curve"/>
      <point x="647" y="0" type="line"/>
      <point x="647" y="81"/>
      <point x="647" y="151"/>
      <point x="647" y="238" type="curve"/>
      <point x="647" y="475" type="line"/>
      <point x="647" y="562"/>
      <point x="647" y="632"/>
      <point x="647" y="713" type="curve"/>
      <point x="615" y="713" type="line"/>
      <point x="615" y="632"/>
      <point x="615" y="562"/>
      <point x="615" y="475" type="curve"/>
      <point x="615" y="62" type="line"/>
      <point x="611" y="62" type="line"/>
      <point x="426" y="319" type="line"/>
      <point x="335" y="445"/>
      <point x="243" y="575"/>
      <point x="143" y="713" type="curve"/>
      <point x="110" y="713" type="line"/>
      <point x="110" y="632"/>
      <point x="110" y="562"/>
      <point x="110" y="475" type="curve"/>
      <point x="110" y="238" type="line"/>
      <point x="110" y="151"/>
      <point x="110" y="81"/>
    </contour>
  </outline>
</glyph>
<glyph name="O" format="2">
  <advance width="819"/>
  <unicode hex="004F"/>
  <anchor x="409" y="0" name="bottom"/>
  <anchor x="409" y="357" name="center"/>
  <anchor x="494" y="0" name="ogonek"/>
  <anchor x="409" y="713" name="top"/>
  <anchor x="27" y="713" name="topleft"/>
  <anchor x="722" y="713" name="topright"/>
  <outline>
    <contour>
      <point x="413" y="-9" type="curve" smooth="yes"/>
      <point x="625" y="-9"/>
      <point x="759" y="148"/>
      <point x="759" y="358" type="curve" smooth="yes"/>
      <point x="759" y="562"/>
      <point x="631" y="725"/>
      <point x="411" y="725" type="curve" smooth="yes"/>
      <point x="195" y="725"/>
      <point x="60" y="565"/>
      <point x="60" y="358" type="curve" smooth="yes"/>
      <point x="60" y="158"/>
      <point x="183" y="-9"/>
    </contour>
    <contour>
      <point x="411" y="24" type="curve"/>
      <point x="190" y="24"/>
      <point x="93" y="182"/>
      <point x="93" y="358" type="curve" smooth="yes"/>
      <point x="93" y="532"/>
      <point x="194" y="692"/>
      <point x="411" y="692" type="curve"/>
      <point x="621" y="692"/>
      <point x="726" y="544"/>
      <point x="726" y="358" type="curve" smooth="yes"/>
      <point x="726" y="186"/>
      <point x="632" y="24"/>
    </contour>
  </outline>
</glyph>
<glyph name="P" format="2">
  <advance width="610"/>
  <unicode hex="0050"/>
  <outline>
    <contour>
      <point x="296" y="311" type="curve"/>
      <point x="501" y="311"/>
      <point x="560" y="403"/>
      <point x="560" y="525" type="curve" smooth="yes"/>
      <point x="560" y="647"/>
      <point x="490" y="713"/>
      <point x="336" y="713" type="curve"/>
      <point x="239" y="713"/>
      <point x="162" y="713"/>
      <point x="110" y="713" type="curve"/>
      <point x="131" y="682" type="line"/>
      <point x="334" y="682" type="line" smooth="yes"/>
      <point x="415" y="682"/>
      <point x="527" y="673"/>
      <point x="527" y="525" type="curve" smooth="yes"/>
      <point x="527" y="393"/>
      <point x="456" y="341"/>
      <point x="295" y="341" type="curve" smooth="yes"/>
      <point x="137" y="341" type="line"/>
      <point x="137" y="311" type="line"/>
      <point x="177" y="311"/>
      <point x="245" y="311"/>
    </contour>
    <contour>
      <point x="110" y="0" type="curve"/>
      <point x="142" y="0" type="line"/>
      <point x="142" y="81"/>
      <point x="142" y="151"/>
      <point x="142" y="238" type="curve"/>
      <point x="142" y="472" type="line"/>
      <point x="142" y="559"/>
      <point x="142" y="629"/>
      <point x="142" y="710" type="curve"/>
      <point x="110" y="713" type="line"/>
      <point x="110" y="632"/>
      <point x="110" y="562"/>
      <point x="110" y="475" type="curve"/>
      <point x="110" y="238" type="line"/>
      <point x="110" y="151"/>
      <point x="110" y="81"/>
    </contour>
  </outline>
</glyph>
<glyph name="S" format="2">
  <advance width="575"/>
  <unicode hex="0053"/>
  <anchor x="293" y="0" name="bottom"/>
  <anchor x="293" y="713" name="top"/>
  <outline>
    <contour>
      <point x="302" y="-9" type="curve" smooth="yes"/>
      <point x="458" y="-9"/>
      <point x="527" y="80"/>
      <point x="527" y="185" type="curve" smooth="yes"/>
      <point x="527" y="278"/>
      <point x="473" y="326"/>
      <point x="301" y="383" type="curve" smooth="yes"/>
      <point x="159" y="430"/>
      <point x="99" y="462"/>
      <point x="99" y="545" type="curve" smooth="yes"/>
      <point x="99" y="649"/>
      <point x="186" y="692"/>
      <point x="282" y="692" type="curve"/>
      <point x="342" y="692"/>
      <point x="417" y="675"/>
      <point x="476" y="633" type="curve"/>
      <point x="482" y="669" type="line"/>
      <point x="446" y="696"/>
      <point x="367" y="725"/>
      <point x="285" y="725" type="curve" smooth="yes"/>
      <point x="144" y="725"/>
      <point x="66" y="645"/>
      <point x="66" y="545" type="curve" smooth="yes"/>
      <point x="66" y="444"/>
      <point x="146" y="400"/>
      <point x="287" y="354" type="curve" smooth="yes"/>
      <point x="420" y="311"/>
      <point x="494" y="276"/>
      <point x="494" y="185" type="curve" smooth="yes"/>
      <point x="494" y="66"/>
      <point x="407" y="24"/>
      <point x="302" y="24" type="curve"/>
      <point x="215" y="24"/>
      <point x="146" y="47"/>
      <point x="80" y="82" type="curve"/>
      <point x="74" y="48" type="line"/>
      <point x="118" y="21"/>
      <point x="212" y="-9"/>
    </contour>
  </outline>
</glyph>
<glyph name="U" format="2">
  <advance width="732"/>
  <unicode hex="0055"/>
  <anchor x="367" y="0" name="bottom"/>
  <anchor x="449" y="0" name="ogonek"/>
  <anchor x="367" y="713" name="top"/>
  <anchor x="689" y="713" name="topright"/>
  <outline>
    <contour>
      <point x="366" y="-9" type="curve" smooth="yes"/>
      <point x="552" y="-9"/>
      <point x="633" y="100"/>
      <point x="633" y="258" type="curve" smooth="yes"/>
      <point x="633" y="302"/>
      <point x="633" y="388"/>
      <point x="633" y="475" type="curve"/>
      <point x="633" y="562"/>
      <point x="633" y="632"/>
      <point x="633" y="713" type="curve"/>
      <point x="601" y="713" type="line"/>
      <point x="601" y="632"/>
      <point x="601" y="562"/>
      <point x="601" y="475" type="curve"/>
      <point x="601" y="268" type="line" smooth="yes"/>
      <point x="601" y="115"/>
      <point x="540" y="24"/>
      <point x="366" y="24" type="curve"/>
      <point x="192" y="24"/>
      <point x="130" y="116"/>
      <point x="130" y="267" type="curve" smooth="yes"/>
      <point x="130" y="475" type="line"/>
      <point x="130" y="562"/>
      <point x="130" y="632"/>
      <point x="130" y="713" type="curve"/>
      <point x="98" y="713" type="line"/>
      <point x="98" y="632"/>
      <point x="98" y="562"/>
      <point x="98" y="475" type="curve"/>
      <point x="98" y="388"/>
      <point x="98" y="302"/>
      <point x="98" y="258" type="curve" smooth="yes"/>
      <point x="98" y="100"/>
      <point x="181" y="-9"/>
    </contour>
  </outline>
</glyph>
<glyph name="W" format="2">
  <advance width="999"/>
  <unicode hex="0057"/>
  <anchor x="499" y="0" name="bottom"/>
  <anchor x="499" y="713" name="top"/>
  <outline>
    <contour>
      <point x="250" y="0" type="curve"/>
      <point x="300" y="0" type="line"/>
      <point x="332" y="110"/>
      <point x="371" y="243"/>
      <point x="403" y="353" type="curve"/>
      <point x="496" y="672" type="line"/>
      <point x="502" y="672" type="line"/>
      <point x="596" y="353" type="line"/>
      <point x="628" y="243"/>
      <point x="667" y="111"/>
      <point x="700" y="0" type="curve"/>
      <point x="750" y="0" type="line"/>
      <point x="771" y="68"/>
      <point x="797" y="155"/>
      <point x="819" y="226" type="curve"/>
      <point x="888" y="450" type="line"/>
      <point x="912" y="529"/>
      <point x="942" y="627"/>
      <point x="968" y="713" type="curve"/>
      <point x="935" y="713" type="line"/>
      <point x="901" y="601"/>
      <point x="860" y="469"/>
      <point x="826" y="358" type="curve"/>
      <point x="728" y="37" type="line"/>
      <point x="722" y="37" type="line"/>
      <point x="628" y="357" type="line"/>
      <point x="594" y="471"/>
      <point x="557" y="599"/>
      <point x="523" y="713" type="curve"/>
      <point x="474" y="713" type="line"/>
      <point x="442" y="602"/>
      <point x="403" y="467"/>
      <point x="371" y="358" type="curve"/>
      <point x="278" y="37" type="line"/>
      <point x="272" y="37" type="line"/>
      <point x="175" y="355" type="line"/>
      <point x="140" y="469"/>
      <point x="100" y="599"/>
      <point x="65" y="713" type="curve"/>
      <point x="32" y="713" type="line"/>
      <point x="58" y="629"/>
      <point x="89" y="527"/>
      <point x="113" y="448" type="curve"/>
      <point x="181" y="225" type="line"/>
      <point x="202" y="156"/>
      <point x="228" y="71"/>
    </contour>
  </outline>
</glyph>
<glyph name="Z" format="2">
  <advance width="659"/>
  <unicode hex="005A"/>
  <anchor x="330" y="0" name="bottom"/>
  <anchor x="330" y="357" name="center"/>
  <anchor x="330" y="713" name="top"/>
  <outline>
    <contour>
      <point x="55" y="0" type="line"/>
      <point x="599" y="0" type="line"/>
      <point x="599" y="31" type="line"/>
      <point x="510" y="31"/>
      <point x="368" y="31"/>
      <point x="270" y="31" type="curve"/>
      <point x="66" y="31" type="line"/>
      <point x="80" y="5" type="line"/>
      <point x="396" y="420" type="line"/>
      <point x="462" y="507"/>
      <point x="527" y="594"/>
      <point x="596" y="684" type="curve"/>
      <point x="596" y="713" type="line"/>
      <point x="61" y="713" type="line"/>
      <point x="61" y="682" type="line"/>
      <point x="172" y="682"/>
      <point x="276" y="682"/>
      <point x="368" y="682" type="curve"/>
      <point x="591" y="682" type="line"/>
      <point x="568" y="700" type="line"/>
      <point x="273" y="311" type="line"/>
      <point x="208" y="225"/>
      <point x="115" y="105"/>
      <point x="55" y="25" type="curve"/>
    </contour>
  </outline>
</glyph>
<glyph name="backslash" format="2">
  <advance width="438"/>
  <unicode hex="005C"/>
  <outline>
    <contour>
      <point x="365" y="0" type="curve"/>
      <point x="398" y="0" type="line"/>
      <point x="364" y="74"/>
      <point x="336" y="137"/>
      <point x="294" y="228" type="curve"/>
      <point x="181" y="476" type="line"/>
      <point x="138" y="571"/>
      <point x="108" y="636"/>
      <point x="73" y="713" type="curve"/>
      <point x="40" y="713" type="line"/>
      <point x="75" y="636"/>
      <point x="105" y="571"/>
      <point x="149" y="474" type="curve"/>
      <point x="261" y="228" type="line"/>
      <point x="303" y="137"/>
      <point x="331" y="74"/>
    </contour>
  </outline>
</glyph>
<glyph name="asciicircum" format="2">
  <advance width="590"/>
  <unicode hex="005E"/>
  <outline>
    <contour>
      <point x="483" y="394" type="curve"/>
      <point x="520" y="395" type="line"/>
      <point x="453" y="491"/>
      <point x="385" y="588"/>
      <point x="318" y="684" type="curve"/>
      <point x="272" y="684" type="line"/>
      <point x="205" y="588"/>
      <point x="137" y="493"/>
      <point x="70" y="397" type="curve"/>
      <point x="107" y="397" type="line"/>
      <point x="169" y="483"/>
      <point x="230" y="570"/>
      <point x="292" y="656" type="curve"/>
      <point x="298" y="656" type="line"/>
      <point x="360" y="569"/>
      <point x="421" y="481"/>
    </contour>
  </outline>
</glyph>
<glyph name="a" format="2">
  <advance width="516"/>
  <unicode hex="0061"/>
  <anchor x="264" y="0" name="bottom"/>
  <anchor x="426" y="0" name="ogonek"/>
  <anchor x="264" y="494" name="top"/>
  <outline>
    <contour>
      <point x="217" y="-9" type="curve" smooth="yes"/>
      <point x="290" y="-9"/>
      <point x="357" y="32"/>
      <point x="391" y="80" type="curve"/>
      <point x="397" y="80" type="line"/>
      <point x="397" y="0" type="line"/>
      <point x="426" y="0" type="line"/>
      <point x="426" y="47"/>
      <point x="426" y="79"/>
      <point x="426" y="121" type="curve"/>
      <point x="426" y="211" type="line" smooth="yes"/>
      <point x="426" y="257"/>
      <point x="426" y="309"/>
      <point x="426" y="339" type="curve" smooth="yes"/>
      <point x="426" y="455"/>
      <point x="363" y="504"/>
      <point x="266" y="504" type="curve" smooth="yes"/>
      <point x="207" y="504"/>
      <point x="135" y="486"/>
      <point x="87" y="465" type="curve"/>
      <point x="90" y="432" type="line"/>
      <point x="166" y="463"/>
      <point x="220" y="472"/>
      <point x="266" y="472" type="curve" smooth="yes"/>
      <point x="339" y="472"/>
      <point x="402" y="450"/>
      <point x="397" y="312" type="curve"/>
      <point x="224" y="276" type="line" smooth="yes"/>
      <point x="155" y="262"/>
      <point x="66" y="231"/>
      <point x="66" y="127" type="curve" smooth="yes"/>
      <point x="66" y="46"/>
      <point x="121" y="-9"/>
    </contour>
    <contour>
      <point x="217" y="22" type="curve" smooth="yes"/>
      <point x="147" y="22"/>
      <point x="97" y="52"/>
      <point x="97" y="128" type="curve" smooth="yes"/>
      <point x="97" y="205"/>
      <point x="161" y="234"/>
      <point x="236" y="248" type="curve" smooth="yes"/>
      <point x="349" y="269"/>
      <point x="378" y="280"/>
      <point x="397" y="289" type="curve"/>
      <point x="396" y="141" type="line"/>
      <point x="356" y="56"/>
      <point x="282" y="22"/>
    </contour>
  </outline>
</glyph>
<glyph name="h" format="2">
  <advance width="569"/>
  <unicode hex="0068"/>
  <guideline x="103" y="731" angle="15.2551"/>
  <anchor x="292" y="0" name="bottom"/>
  <anchor x="292" y="409" name="center"/>
  <anchor x="272" y="723" name="top"/>
  <outline>
    <contour>
      <point x="105" y="0" type="curve"/>
      <point x="135" y="0" type="line"/>
      <point x="135" y="75"/>
      <point x="135" y="140"/>
      <point x="135" y="221" type="curve"/>
      <point x="135" y="345" type="line"/>
      <point x="180" y="415"/>
      <point x="240" y="472"/>
      <point x="326" y="472" type="curve" smooth="yes"/>
      <point x="419" y="472"/>
      <point x="449" y="422"/>
      <point x="449" y="326" type="curve"/>
      <point x="449" y="221" type="line"/>
      <point x="449" y="144"/>
      <point x="449" y="75"/>
      <point x="449" y="0" type="curve"/>
      <point x="479" y="0" type="line"/>
      <point x="479" y="75"/>
      <point x="479" y="144"/>
      <point x="479" y="221" type="curve"/>
      <point x="479" y="259"/>
      <point x="479" y="283"/>
      <point x="479" y="326" type="curve" smooth="yes"/>
      <point x="479" y="440"/>
      <point x="437" y="504"/>
      <point x="327" y="504" type="curve" smooth="yes"/>
      <point x="233" y="504"/>
      <point x="171" y="443"/>
      <point x="141" y="401" type="curve"/>
      <point x="135" y="401" type="line"/>
      <point x="135" y="494" type="line"/>
      <point x="135" y="579"/>
      <point x="135" y="658"/>
      <point x="135" y="739" type="curve"/>
      <point x="105" y="731" type="line"/>
      <point x="105" y="658"/>
      <point x="105" y="579"/>
      <point x="105" y="494" type="curve"/>
      <point x="105" y="221" type="line"/>
      <point x="105" y="140"/>
      <point x="105" y="75"/>
    </contour>
  </outline>
</glyph>
<glyph name="k" format="2">
  <advance width="517"/>
  <unicode hex="006B"/>
  <anchor x="268" y="0" name="bottom"/>
  <anchor x="268" y="723" name="top"/>
  <outline>
    <contour>
      <point x="441" y="0" type="curve"/>
      <point x="490" y="0" type="line"/>
      <point x="421" y="57"/>
      <point x="351" y="113"/>
      <point x="282" y="170" type="curve"/>
      <point x="172" y="259" type="line"/>
      <point x="172" y="240" type="line"/>
      <point x="269" y="323" type="line"/>
      <point x="336" y="380"/>
      <point x="402" y="437"/>
      <point x="469" y="494" type="curve"/>
      <point x="423" y="494" type="line"/>
      <point x="366" y="445"/>
      <point x="308" y="395"/>
      <point x="251" y="346" type="curve"/>
      <point x="158" y="266" type="line"/>
      <point x="128" y="266" type="line"/>
      <point x="128" y="238" type="line"/>
      <point x="151" y="238" type="line"/>
      <point x="264" y="147" type="line"/>
      <point x="323" y="98"/>
      <point x="382" y="49"/>
    </contour>
    <contour>
      <point x="105" y="0" type="curve"/>
      <point x="135" y="0" type="line"/>
      <point x="135" y="75"/>
      <point x="135" y="140"/>
      <point x="135" y="221" type="curve"/>
      <point x="135" y="494" type="line"/>
      <point x="135" y="579"/>
      <point x="135" y="658"/>
      <point x="135" y="739" type="curve"/>
      <point x="105" y="731" type="line"/>
      <point x="105" y="658"/>
      <point x="105" y="579"/>
      <point x="105" y="494" type="curve"/>
      <point x="105" y="221" type="line"/>
      <point x="105" y="140"/>
      <point x="105" y="75"/>
    </contour>
  </outline>
</glyph>
<glyph name="l" format="2">
  <advance width="240"/>
  <unicode hex="006C"/>
  <anchor x="120" y="0" name="bottom"/>
  <anchor x="120" y="409" name="center"/>
  <anchor x="120" y="723" name="top"/>
  <anchor x="194" y="494" name="topright"/>
  <outline>
    <contour>
      <point x="105" y="0" type="curve"/>
      <point x="135" y="0" type="line"/>
      <point x="135" y="75"/>
      <point x="135" y="140"/>
      <point x="135" y="221" type="curve"/>
      <point x="135" y="494" type="line"/>
      <point x="135" y="579"/>
      <point x="135" y="657"/>
      <point x="135" y="739" type="curve"/>
      <point x="105" y="731" type="line"/>
      <point x="105" y="659"/>
      <point x="105" y="579"/>
      <point x="105" y="494" type="curve"/>
      <point x="105" y="221" type="line"/>
      <point x="105" y="140"/>
      <point x="105" y="75"/>
    </contour>
  </outline>
</glyph>
<glyph name="n" format="2">
  <advance width="569"/>
  <unicode hex="006E"/>
  <anchor x="293" y="0" name="bottom"/>
  <anchor x="293" y="494" name="top"/>
  <outline>
    <contour>
      <point x="105" y="0" type="curve"/>
      <point x="135" y="0" type="line"/>
      <point x="135" y="75"/>
      <point x="135" y="140"/>
      <point x="135" y="221" type="curve"/>
      <point x="135" y="345" type="line"/>
      <point x="180" y="415"/>
      <point x="240" y="472"/>
      <point x="326" y="472" type="curve" smooth="yes"/>
      <point x="419" y="472"/>
      <point x="449" y="422"/>
      <point x="449" y="326" type="curve"/>
      <point x="449" y="221" type="line"/>
      <point x="449" y="144"/>
      <point x="449" y="75"/>
      <point x="449" y="0" type="curve"/>
      <point x="479" y="0" type="line"/>
      <point x="479" y="75"/>
      <point x="479" y="144"/>
      <point x="479" y="221" type="curve"/>
      <point x="479" y="259"/>
      <point x="479" y="283"/>
      <point x="479" y="326" type="curve" smooth="yes"/>
      <point x="479" y="440"/>
      <point x="437" y="504"/>
      <point x="327" y="504" type="curve" smooth="yes"/>
      <point x="233" y="504"/>
      <point x="171" y="443"/>
      <point x="141" y="401" type="curve"/>
      <point x="135" y="401" type="line"/>
      <point x="135" y="497" type="line"/>
      <point x="105" y="494" type="line"/>
      <point x="105" y="443"/>
      <point x="105" y="390"/>
      <point x="105" y="342" type="curve"/>
      <point x="105" y="221" type="line"/>
      <point x="105" y="140"/>
      <point x="105" y="75"/>
    </contour>
  </outline>
</glyph>
<glyph name="o" format="2">
  <advance width="597"/>
  <unicode hex="006F"/>
  <anchor x="298" y="0" name="bottom"/>
  <anchor x="298" y="247" name="center"/>
  <anchor x="363" y="0" name="ogonek"/>
  <anchor x="298" y="494" name="top"/>
  <anchor x="538" y="494" name="topright"/>
  <outline>
    <contour>
      <point x="300" y="-9" type="curve" smooth="yes"/>
      <point x="441" y="-9"/>
      <point x="535" y="106"/>
      <point x="535" y="251" type="curve" smooth="yes"/>
      <point x="535" y="395"/>
      <point x="444" y="504"/>
      <point x="300" y="504" type="curve" smooth="yes"/>
      <point x="160" y="504"/>
      <point x="62" y="399"/>
      <point x="62" y="251" type="curve" smooth="yes"/>
      <point x="62" y="113"/>
      <point x="151" y="-9"/>
    </contour>
    <contour>
      <point x="300" y="23" type="curve"/>
      <point x="161" y="23"/>
      <point x="93" y="134"/>
      <point x="93" y="251" type="curve" smooth="yes"/>
      <point x="93" y="374"/>
      <point x="165" y="472"/>
      <point x="300" y="472" type="curve"/>
      <point x="426" y="472"/>
      <point x="504" y="382"/>
      <point x="504" y="251" type="curve" smooth="yes"/>
      <point x="504" y="134"/>
      <point x="437" y="23"/>
    </contour>
  </outline>
</glyph>
<glyph name="p" format="2">
  <advance width="591"/>
  <unicode hex="0070"/>
  <outline>
    <contour>
      <point x="105" y="-194" type="curve"/>
      <point x="135" y="-192" type="line"/>
      <point x="135" y="-117"/>
      <point x="135" y="-52"/>
      <point x="135" y="29" type="curve"/>
      <point x="135" y="69" type="line"/>
      <point x="141" y="69" type="line"/>
      <point x="182" y="19"/>
      <point x="237" y="-9"/>
      <point x="308" y="-9" type="curve" smooth="yes"/>
      <point x="454" y="-9"/>
      <point x="529" y="110"/>
      <point x="529" y="249" type="curve" smooth="yes"/>
      <point x="529" y="396"/>
      <point x="445" y="504"/>
      <point x="306" y="504" type="curve" smooth="yes"/>
      <point x="231" y="504"/>
      <point x="170" y="468"/>
      <point x="141" y="435" type="curve"/>
      <point x="135" y="435" type="line"/>
      <point x="135" y="497" type="line"/>
      <point x="105" y="494" type="line"/>
      <point x="105" y="443"/>
      <point x="105" y="390"/>
      <point x="105" y="342" type="curve"/>
      <point x="105" y="29" type="line"/>
      <point x="105" y="-52"/>
      <point x="105" y="-119"/>
    </contour>
    <contour>
      <point x="308" y="23" type="curve"/>
      <point x="230" y="23"/>
      <point x="175" y="60"/>
      <point x="135" y="124" type="curve"/>
      <point x="135" y="384" type="line"/>
      <point x="175" y="443"/>
      <point x="239" y="472"/>
      <point x="306" y="472" type="curve"/>
      <point x="437" y="472"/>
      <point x="498" y="372"/>
      <point x="498" y="249" type="curve" smooth="yes"/>
      <point x="498" y="131"/>
      <point x="442" y="23"/>
    </contour>
  </outline>
</glyph>
<glyph name="q" format="2">
  <advance width="581"/>
  <unicode hex="0071"/>
  <outline>
    <contour>
      <point x="456" y="-194" type="curve"/>
      <point x="486" y="-192" type="line"/>
      <point x="486" y="-117"/>
      <point x="486" y="-52"/>
      <point x="486" y="29" type="curve"/>
      <point x="486" y="342" type="line"/>
      <point x="486" y="391"/>
      <point x="486" y="445"/>
      <point x="486" y="497" type="curve"/>
      <point x="456" y="494" type="line"/>
      <point x="456" y="435" type="line"/>
      <point x="450" y="435" type="line"/>
      <point x="420" y="469"/>
      <point x="360" y="504"/>
      <point x="285" y="504" type="curve" smooth="yes"/>
      <point x="146" y="504"/>
      <point x="62" y="396"/>
      <point x="62" y="249" type="curve" smooth="yes"/>
      <point x="62" y="110"/>
      <point x="137" y="-9"/>
      <point x="283" y="-9" type="curve" smooth="yes"/>
      <point x="354" y="-9"/>
      <point x="408" y="19"/>
      <point x="450" y="70" type="curve"/>
      <point x="456" y="70" type="line"/>
      <point x="456" y="29" type="line"/>
      <point x="456" y="-52"/>
      <point x="456" y="-119"/>
    </contour>
    <contour>
      <point x="283" y="23" type="curve"/>
      <point x="149" y="23"/>
      <point x="93" y="131"/>
      <point x="93" y="249" type="curve" smooth="yes"/>
      <point x="93" y="372"/>
      <point x="154" y="472"/>
      <point x="285" y="472" type="curve"/>
      <point x="352" y="472"/>
      <point x="416" y="443"/>
      <point x="456" y="384" type="curve"/>
      <point x="456" y="124" type="line"/>
      <point x="416" y="60"/>
      <point x="361" y="23"/>
    </contour>
  </outline>
</glyph>
<glyph name="r" format="2">
  <advance width="389"/>
  <unicode hex="0072"/>
  <anchor x="120" y="0" name="bottom"/>
  <anchor x="232" y="494" name="top"/>
  <outline>
    <contour>
      <point x="105" y="0" type="curve"/>
      <point x="135" y="0" type="line"/>
      <point x="135" y="75"/>
      <point x="135" y="140"/>
      <point x="135" y="221" type="curve"/>
      <point x="135" y="302" type="line"/>
      <point x="181" y="457"/>
      <point x="262" y="472"/>
      <point x="301" y="472" type="curve" smooth="yes"/>
      <point x="324" y="472"/>
      <point x="337" y="468"/>
      <point x="356" y="462" type="curve"/>
      <point x="359" y="496" type="line"/>
      <point x="342" y="501"/>
      <point x="324" y="504"/>
      <point x="303" y="504" type="curve" smooth="yes"/>
      <point x="256" y="504"/>
      <point x="182" y="487"/>
      <point x="140" y="388" type="curve"/>
      <point x="135" y="388" type="line"/>
      <point x="135" y="497" type="line"/>
      <point x="105" y="494" type="line"/>
      <point x="105" y="443"/>
      <point x="105" y="390"/>
      <point x="105" y="342" type="curve"/>
      <point x="105" y="221" type="line"/>
      <point x="105" y="140"/>
      <point x="105" y="75"/>
    </contour>
  </outline>
</glyph>
<glyph name="s" format="2">
  <advance width="446"/>
  <unicode hex="0073"/>
  <anchor x="222" y="0" name="bottom"/>
  <anchor x="222" y="494" name="top"/>
  <outline>
    <contour>
      <point x="229" y="-9" type="curve" smooth="yes"/>
      <point x="341" y="-9"/>
      <point x="389" y="56"/>
      <point x="389" y="130" type="curve" smooth="yes"/>
      <point x="389" y="217"/>
      <point x="322" y="240"/>
      <point x="230" y="268" type="curve" smooth="yes"/>
      <point x="140" y="295"/>
      <point x="104" y="317"/>
      <point x="104" y="374" type="curve" smooth="yes"/>
      <point x="104" y="458"/>
      <point x="175" y="472"/>
      <point x="220" y="472" type="curve"/>
      <point x="258" y="472"/>
      <point x="303" y="463"/>
      <point x="354" y="430" type="curve"/>
      <point x="358" y="465" type="line"/>
      <point x="323" y="487"/>
      <point x="272" y="504"/>
      <point x="220" y="504" type="curve" smooth="yes"/>
      <point x="129" y="504"/>
      <point x="73" y="451"/>
      <point x="73" y="375" type="curve" smooth="yes"/>
      <point x="73" y="293"/>
      <point x="139" y="265"/>
      <point x="210" y="243" type="curve" smooth="yes"/>
      <point x="321" y="209"/>
      <point x="358" y="190"/>
      <point x="358" y="133" type="curve" smooth="yes"/>
      <point x="358" y="46"/>
      <point x="299" y="23"/>
      <point x="229" y="23" type="curve"/>
      <point x="172" y="23"/>
      <point x="118" y="39"/>
      <point x="72" y="65" type="curve"/>
      <point x="67" y="31" type="line"/>
      <point x="108" y="8"/>
      <point x="174" y="-9"/>
    </contour>
  </outline>
</glyph>
<glyph name="u" format="2">
  <advance width="549"/>
  <unicode hex="0075"/>
  <anchor x="275" y="0" name="bottom"/>
  <anchor x="459" y="0" name="ogonek"/>
  <anchor x="275" y="494" name="top"/>
  <anchor x="518" y="494" name="topright"/>
  <outline>
    <contour>
      <point x="242" y="-9" type="curve" smooth="yes"/>
      <point x="331" y="-9"/>
      <point x="393" y="52"/>
      <point x="423" y="94" type="curve"/>
      <point x="429" y="94" type="line"/>
      <point x="429" y="0" type="line"/>
      <point x="459" y="0" type="line"/>
      <point x="459" y="75"/>
      <point x="459" y="140"/>
      <point x="459" y="221" type="curve"/>
      <point x="459" y="271" type="line"/>
      <point x="459" y="352"/>
      <point x="459" y="419"/>
      <point x="459" y="494" type="curve"/>
      <point x="429" y="494" type="line"/>
      <point x="429" y="419"/>
      <point x="429" y="352"/>
      <point x="429" y="271" type="curve"/>
      <point x="429" y="150" type="line"/>
      <point x="384" y="80"/>
      <point x="324" y="23"/>
      <point x="243" y="23" type="curve" smooth="yes"/>
      <point x="150" y="23"/>
      <point x="120" y="73"/>
      <point x="120" y="169" type="curve"/>
      <point x="120" y="271" type="line"/>
      <point x="120" y="352"/>
      <point x="120" y="421"/>
      <point x="120" y="496" type="curve"/>
      <point x="90" y="494" type="line"/>
      <point x="90" y="419"/>
      <point x="90" y="352"/>
      <point x="90" y="271" type="curve"/>
      <point x="90" y="242"/>
      <point x="90" y="212"/>
      <point x="90" y="169" type="curve" smooth="yes"/>
      <point x="90" y="55"/>
      <point x="132" y="-9"/>
    </contour>
  </outline>
</glyph>
<glyph name="v" format="2">
  <advance width="489"/>
  <unicode hex="0076"/>
  <outline>
    <contour>
      <point x="224" y="0" type="curve"/>
      <point x="266" y="0" type="line"/>
      <point x="290" y="62"/>
      <point x="313" y="123"/>
      <point x="337" y="185" type="curve"/>
      <point x="371" y="273" type="line"/>
      <point x="399" y="346"/>
      <point x="428" y="421"/>
      <point x="456" y="494" type="curve"/>
      <point x="424" y="494" type="line"/>
      <point x="389" y="401"/>
      <point x="354" y="310"/>
      <point x="317" y="215" type="curve"/>
      <point x="248" y="35" type="line"/>
      <point x="242" y="35" type="line"/>
      <point x="173" y="215" type="line"/>
      <point x="136" y="310"/>
      <point x="101" y="401"/>
      <point x="65" y="496" type="curve"/>
      <point x="33" y="494" type="line"/>
      <point x="61" y="422"/>
      <point x="90" y="347"/>
      <point x="118" y="275" type="curve"/>
      <point x="152" y="187" type="line"/>
      <point x="175" y="127"/>
      <point x="200" y="62"/>
    </contour>
  </outline>
</glyph>
<glyph name="x" format="2">
  <advance width="504"/>
  <unicode hex="0078"/>
  <outline>
    <contour>
      <point x="36" y="0" type="curve"/>
      <point x="73" y="0" type="line"/>
      <point x="110" y="49"/>
      <point x="137" y="85"/>
      <point x="174" y="134" type="curve"/>
      <point x="244" y="227" type="line"/>
      <point x="249" y="227" type="line"/>
      <point x="326" y="130" type="line"/>
      <point x="364" y="82"/>
      <point x="391" y="48"/>
      <point x="429" y="0" type="curve"/>
      <point x="468" y="0" type="line"/>
      <point x="418" y="63"/>
      <point x="387" y="102"/>
      <point x="350" y="148" type="curve"/>
      <point x="261" y="260" type="line"/>
      <point x="262" y="246" type="line"/>
      <point x="341" y="351" type="line"/>
      <point x="378" y="400"/>
      <point x="400" y="430"/>
      <point x="448" y="494" type="curve"/>
      <point x="411" y="494" type="line"/>
      <point x="374" y="445"/>
      <point x="347" y="409"/>
      <point x="313" y="364" type="curve"/>
      <point x="247" y="276" type="line"/>
      <point x="243" y="276" type="line"/>
      <point x="177" y="363" type="line"/>
      <point x="143" y="408"/>
      <point x="116" y="444"/>
      <point x="77" y="496" type="curve"/>
      <point x="41" y="494" type="line"/>
      <point x="88" y="432"/>
      <point x="114" y="397"/>
      <point x="152" y="347" type="curve"/>
      <point x="231" y="242" type="line"/>
      <point x="230" y="258" type="line"/>
      <point x="148" y="149" type="line"/>
      <point x="111" y="100"/>
      <point x="85" y="65"/>
    </contour>
  </outline>
</glyph>
<glyph name="y" format="2">
  <advance width="493"/>
  <unicode hex="0079"/>
  <anchor x="347" y="0" name="bottom"/>
  <anchor x="247" y="494" name="top"/>
  <outline>
    <contour>
      <point x="150" y="-194" type="curve"/>
      <point x="184" y="-192" type="line"/>
      <point x="213" y="-120"/>
      <point x="246" y="-39"/>
      <point x="297" y="88" type="curve"/>
      <point x="353" y="227" type="line"/>
      <point x="403" y="352"/>
      <point x="428" y="413"/>
      <point x="460" y="494" type="curve"/>
      <point x="430" y="494" type="line"/>
      <point x="392" y="401"/>
      <point x="355" y="310"/>
      <point x="317" y="215" type="curve"/>
      <point x="244" y="35" type="line"/>
      <point x="238" y="35" type="line"/>
      <point x="171" y="214" type="line"/>
      <point x="135" y="310"/>
      <point x="101" y="400"/>
      <point x="65" y="496" type="curve"/>
      <point x="33" y="494" type="line"/>
      <point x="60" y="423"/>
      <point x="89" y="347"/>
      <point x="116" y="276" type="curve"/>
      <point x="150" y="186" type="line"/>
      <point x="175" y="120"/>
      <point x="202" y="49"/>
      <point x="228" y="-19" type="curve"/>
      <point x="228" y="-4" type="line"/>
      <point x="202" y="-67"/>
      <point x="176" y="-131"/>
    </contour>
  </outline>
</glyph>
<glyph name="z" format="2">
  <advance width="482"/>
  <unicode hex="007A"/>
  <anchor x="239" y="0" name="bottom"/>
  <anchor x="239" y="247" name="center"/>
  <anchor x="239" y="494" name="top"/>
  <outline>
    <contour>
      <point x="44" y="0" type="line"/>
      <point x="442" y="0" type="line"/>
      <point x="442" y="28" type="line"/>
      <point x="368" y="28"/>
      <point x="268" y="28"/>
      <point x="208" y="28" type="curve"/>
      <point x="75" y="28" type="line"/>
      <point x="80" y="19" type="line"/>
      <point x="260" y="255" type="line"/>
      <point x="314" y="326"/>
      <point x="383" y="416"/>
      <point x="425" y="471" type="curve"/>
      <point x="425" y="494" type="line"/>
      <point x="44" y="494" type="line"/>
      <point x="44" y="466" type="line"/>
      <point x="124" y="466"/>
      <point x="225" y="466"/>
      <point x="284" y="466" type="curve"/>
      <point x="404" y="466" type="line"/>
      <point x="397" y="484" type="line"/>
      <point x="218" y="249" type="line"/>
      <point x="167" y="182"/>
      <point x="106" y="102"/>
      <point x="44" y="21" type="curve"/>
    </contour>
  </outline>
</glyph>
<glyph name="braceleft" format="2">
  <advance width="372"/>
  <unicode hex="007B"/>
  <outline>
    <contour>
      <point x="285" y="-112" type="curve" smooth="yes"/>
      <point x="362" y="-112" type="line"/>
      <point x="362" y="-82" type="line"/>
      <point x="338" y="-82"/>
      <point x="302" y="-82"/>
      <point x="285" y="-82" type="curve"/>
      <point x="211" y="-82"/>
      <point x="173" y="-49"/>
      <point x="173" y="13" type="curve" smooth="yes"/>
      <point x="173" y="203" type="line" smooth="yes"/>
      <point x="173" y="281"/>
      <point x="142" y="302"/>
      <point x="101" y="321" type="curve"/>
      <point x="101" y="327" type="line"/>
      <point x="142" y="345"/>
      <point x="173" y="367"/>
      <point x="173" y="444" type="curve" smooth="yes"/>
      <point x="173" y="635" type="line" smooth="yes"/>
      <point x="173" y="697"/>
      <point x="211" y="730"/>
      <point x="285" y="730" type="curve"/>
      <point x="303" y="730"/>
      <point x="340" y="730"/>
      <point x="362" y="730" type="curve"/>
      <point x="362" y="760" type="line"/>
      <point x="285" y="760" type="line" smooth="yes"/>
      <point x="196" y="760"/>
      <point x="142" y="715"/>
      <point x="142" y="635" type="curve"/>
      <point x="142" y="625"/>
      <point x="142" y="456"/>
      <point x="142" y="446" type="curve"/>
      <point x="142" y="366"/>
      <point x="89" y="338"/>
      <point x="38" y="338" type="curve" smooth="yes"/>
      <point x="10" y="338" type="line"/>
      <point x="10" y="309" type="line"/>
      <point x="38" y="309" type="line" smooth="yes"/>
      <point x="89" y="309"/>
      <point x="142" y="281"/>
      <point x="142" y="201" type="curve"/>
      <point x="142" y="191"/>
      <point x="142" y="23"/>
      <point x="142" y="13" type="curve"/>
      <point x="142" y="-67"/>
      <point x="196" y="-112"/>
    </contour>
  </outline>
</glyph>
<glyph name="asciitilde" format="2">
  <advance width="560"/>
  <unicode hex="007E"/>
  <outline>
    <contour>
      <point x="391" y="233" type="curve" smooth="yes"/>
      <point x="446" y="233"/>
      <point x="490" y="272"/>
      <point x="490" y="344" type="curve"/>
      <point x="461" y="344" type="line"/>
      <point x="461" y="288"/>
      <point x="429" y="264"/>
      <point x="387" y="264" type="curve"/>
      <point x="316" y="264"/>
      <point x="257" y="357"/>
      <point x="170" y="357" type="curve" smooth="yes"/>
      <point x="115" y="357"/>
      <point x="70" y="318"/>
      <point x="70" y="246" type="curve"/>
      <point x="99" y="246" type="line"/>
      <point x="99" y="302"/>
      <point x="132" y="326"/>
      <point x="174" y="326" type="curve"/>
      <point x="245" y="326"/>
      <point x="304" y="233"/>
    </contour>
  </outline>
</glyph>
<glyph name="cent" format="2">
  <advance width="502"/>
  <unicode hex="00A2"/>
  <anchor x="290" y="0" name="bottom"/>
  <anchor x="281" y="494" name="top"/>
  <outline>
    <contour>
      <point x="263" y="-137" type="curve"/>
      <point x="292" y="-137" type="line"/>
      <point x="292" y="1"/>
      <point x="292" y="154"/>
      <point x="292" y="192" type="curve"/>
      <point x="292" y="294" type="line"/>
      <point x="292" y="332"/>
      <point x="292" y="485"/>
      <point x="292" y="623" type="curve"/>
      <point x="263" y="623" type="line"/>
      <point x="263" y="485"/>
      <point x="263" y="332"/>
      <point x="263" y="294" type="curve"/>
      <point x="263" y="192" type="line"/>
      <point x="263" y="154"/>
      <point x="263" y="1"/>
    </contour>
    <contour>
      <point x="304" y="-9" type="curve" smooth="yes"/>
      <point x="366" y="-9"/>
      <point x="418" y="9"/>
      <point x="449" y="28" type="curve"/>
      <point x="442" y="62" type="line"/>
      <point x="399" y="35"/>
      <point x="351" y="23"/>
      <point x="304" y="23" type="curve"/>
      <point x="162" y="23"/>
      <point x="93" y="122"/>
      <point x="93" y="248" type="curve" smooth="yes"/>
      <point x="93" y="385"/>
      <point x="173" y="472"/>
      <point x="296" y="472" type="curve"/>
      <point x="337" y="472"/>
      <point x="386" y="463"/>
      <point x="441" y="431" type="curve"/>
      <point x="446" y="465" type="line"/>
      <point x="408" y="487"/>
      <point x="352" y="504"/>
      <point x="295" y="504" type="curve" smooth="yes"/>
      <point x="150" y="504"/>
      <point x="62" y="393"/>
      <point x="62" y="248" type="curve" smooth="yes"/>
      <point x="62" y="104"/>
      <point x="149" y="-9"/>
    </contour>
  </outline>
</glyph>
<glyph name="sterling" format="2">
  <advance width="579"/>
  <unicode hex="00A3"/>
  <outline>
    <contour>
      <point x="75" y="0" type="line"/>
      <point x="544" y="0" type="line"/>
      <point x="544" y="30" type="line"/>
      <point x="464" y="30"/>
      <point x="333" y="30"/>
      <point x="244" y="30" type="curve"/>
      <point x="96" y="30" type="line"/>
      <point x="101" y="11" type="line"/>
      <point x="171" y="77"/>
      <point x="186" y="142"/>
      <point x="186" y="219" type="curve" smooth="yes"/>
      <point x="186" y="458" type="line" smooth="yes"/>
      <point x="186" y="600"/>
      <point x="244" y="664"/>
      <point x="363" y="664" type="curve"/>
      <point x="404" y="664"/>
      <point x="453" y="655"/>
      <point x="508" y="623" type="curve"/>
      <point x="513" y="657" type="line"/>
      <point x="475" y="679"/>
      <point x="419" y="696"/>
      <point x="362" y="696" type="curve" smooth="yes"/>
      <point x="237" y="696"/>
      <point x="155" y="622"/>
      <point x="155" y="462" type="curve" smooth="yes"/>
      <point x="155" y="381"/>
      <point x="155" y="301"/>
      <point x="155" y="220" type="curve"/>
      <point x="155" y="153"/>
      <point x="141" y="85"/>
      <point x="75" y="25" type="curve"/>
    </contour>
    <contour>
      <point x="66" y="369" type="line"/>
      <point x="124" y="369"/>
      <point x="191" y="369"/>
      <point x="226" y="369" type="curve"/>
      <point x="256" y="369" type="line"/>
      <point x="291" y="369"/>
      <point x="358" y="369"/>
      <point x="416" y="369" type="curve"/>
      <point x="416" y="397" type="line"/>
      <point x="358" y="397"/>
      <point x="291" y="397"/>
      <point x="256" y="397" type="curve"/>
      <point x="226" y="397" type="line"/>
      <point x="191" y="397"/>
      <point x="124" y="397"/>
      <point x="66" y="397" type="curve"/>
    </contour>
  </outline>
</glyph>
<glyph name="currency" format="2">
  <advance width="600"/>
  <unicode hex="00A4"/>
  <outline>
    <contour>
      <point x="298" y="130" type="curve" smooth="yes"/>
      <point x="406" y="130"/>
      <point x="487" y="204"/>
      <point x="487" y="320" type="curve" smooth="yes"/>
      <point x="487" y="433"/>
      <point x="407" y="511"/>
      <point x="300" y="511" type="curve" smooth="yes"/>
      <point x="191" y="511"/>
      <point x="111" y="432"/>
      <point x="111" y="320" type="curve" smooth="yes"/>
      <point x="111" y="204"/>
      <point x="191" y="130"/>
    </contour>
    <contour>
      <point x="77" y="77" type="line"/>
      <point x="118" y="118"/>
      <point x="165" y="165"/>
      <point x="190" y="190" type="curve"/>
      <point x="169" y="211" type="line"/>
      <point x="145" y="187"/>
      <point x="97" y="139"/>
      <point x="56" y="98" type="curve"/>
    </contour>
    <contour>
      <point x="298" y="162" type="curve"/>
      <point x="212" y="162"/>
      <point x="143" y="212"/>
      <point x="143" y="320" type="curve" smooth="yes"/>
      <point x="143" y="422"/>
      <point x="213" y="479"/>
      <point x="300" y="479" type="curve"/>
      <point x="386" y="479"/>
      <point x="455" y="422"/>
      <point x="455" y="320" type="curve" smooth="yes"/>
      <point x="455" y="212"/>
      <point x="386" y="162"/>
    </contour>
    <contour>
      <point x="169" y="431" type="curve"/>
      <point x="190" y="452" type="line"/>
      <point x="166" y="476"/>
      <point x="118" y="524"/>
      <point x="77" y="565" type="curve"/>
      <point x="56" y="544" type="line"/>
      <point x="97" y="503"/>
      <point x="145" y="455"/>
    </contour>
    <contour>
      <point x="523" y="77" type="curve"/>
      <point x="544" y="98" type="line"/>
      <point x="503" y="139"/>
      <point x="455" y="187"/>
      <point x="431" y="211" type="curve"/>
      <point x="410" y="190" type="line"/>
      <point x="435" y="165"/>
      <point x="482" y="118"/>
    </contour>
    <contour>
      <point x="431" y="431" type="line"/>
      <point x="455" y="455"/>
      <point x="503" y="503"/>
      <point x="544" y="544" type="curve"/>
      <point x="523" y="565" type="line"/>
      <point x="482" y="524"/>
      <point x="435" y="477"/>
      <point x="410" y="452" type="curve"/>
    </contour>
  </outline>
</glyph>
<glyph name="brokenbar" format="2">
  <advance width="250"/>
  <unicode hex="00A6"/>
  <outline>
    <contour>
      <point x="110" y="366" type="line"/>
      <point x="140" y="366" type="line"/>
      <point x="140" y="457" type="line"/>
      <point x="140" y="495"/>
      <point x="140" y="648"/>
      <point x="140" y="786" type="curve"/>
      <point x="110" y="786" type="line"/>
      <point x="110" y="648"/>
      <point x="110" y="495"/>
      <point x="110" y="457" type="curve"/>
    </contour>
    <contour>
      <point x="110" y="-154" type="curve"/>
      <point x="140" y="-154" type="line"/>
      <point x="140" y="-16"/>
      <point x="140" y="137"/>
      <point x="140" y="175" type="curve"/>
      <point x="140" y="266" type="line"/>
      <point x="110" y="266" type="line"/>
      <point x="110" y="175" type="line"/>
      <point x="110" y="137"/>
      <point x="110" y="-16"/>
    </contour>
  </outline>
</glyph>
<glyph name="section" format="2">
  <advance width="520"/>
  <unicode hex="00A7"/>
  <outline>
    <contour>
      <point x="244" y="-122" type="curve" smooth="yes"/>
      <point x="377" y="-122"/>
      <point x="434" y="-43"/>
      <point x="434" y="44" type="curve" smooth="yes"/>
      <point x="434" y="148"/>
      <point x="355" y="175"/>
      <point x="242" y="209" type="curve" smooth="yes"/>
      <point x="137" y="241"/>
      <point x="90" y="268"/>
      <point x="90" y="339" type="curve" smooth="yes"/>
      <point x="90" y="418"/>
      <point x="140" y="446"/>
      <point x="189" y="455" type="curve"/>
      <point x="153" y="479" type="line"/>
      <point x="93" y="456"/>
      <point x="58" y="405"/>
      <point x="58" y="340" type="curve" smooth="yes"/>
      <point x="58" y="241"/>
      <point x="139" y="208"/>
      <point x="223" y="182" type="curve" smooth="yes"/>
      <point x="354" y="141"/>
      <point x="402" y="119"/>
      <point x="402" y="48" type="curve" smooth="yes"/>
      <point x="402" y="-59"/>
      <point x="330" y="-89"/>
      <point x="245" y="-89" type="curve"/>
      <point x="177" y="-89"/>
      <point x="112" y="-69"/>
      <point x="57" y="-38" type="curve"/>
      <point x="51" y="-73" type="line"/>
      <point x="100" y="-102"/>
      <point x="180" y="-122"/>
    </contour>
    <contour>
      <point x="389" y="131" type="line"/>
      <point x="448" y="161"/>
      <point x="475" y="216"/>
      <point x="475" y="276" type="curve" smooth="yes"/>
      <point x="475" y="380"/>
      <point x="396" y="407"/>
      <point x="283" y="441" type="curve" smooth="yes"/>
      <point x="178" y="473"/>
      <point x="131" y="500"/>
      <point x="131" y="571" type="curve" smooth="yes"/>
      <point x="131" y="674"/>
      <point x="218" y="692"/>
      <point x="272" y="692" type="curve"/>
      <point x="317" y="692"/>
      <point x="371" y="681"/>
      <point x="433" y="641" type="curve"/>
      <point x="438" y="678" type="line"/>
      <point x="396" y="705"/>
      <point x="335" y="725"/>
      <point x="274" y="725" type="curve" smooth="yes"/>
      <point x="167" y="725"/>
      <point x="99" y="662"/>
      <point x="99" y="572" type="curve" smooth="yes"/>
      <point x="99" y="473"/>
      <point x="180" y="440"/>
      <point x="264" y="414" type="curve" smooth="yes"/>
      <point x="395" y="373"/>
      <point x="443" y="351"/>
      <point x="443" y="280" type="curve" smooth="yes"/>
      <point x="443" y="205"/>
      <point x="408" y="169"/>
      <point x="357" y="154" type="curve"/>
    </contour>
  </outline>
</glyph>
<glyph name="ordfeminine" format="2">
  <advance width="388"/>
  <unicode hex="00AA"/>
  <outline>
    <contour>
      <point x="159" y="335" type="curve" smooth="yes"/>
      <point x="213" y="335"/>
      <point x="265" y="366"/>
      <point x="290" y="403" type="curve"/>
      <point x="295" y="403" type="line"/>
      <point x="295" y="342" type="line"/>
      <point x="323" y="342" type="line"/>
      <point x="323" y="377"/>
      <point x="323" y="409"/>
      <point x="323" y="436" type="curve"/>
      <point x="323" y="502" type="line" smooth="yes"/>
      <point x="323" y="533"/>
      <point x="323" y="579"/>
      <point x="323" y="599" type="curve" smooth="yes"/>
      <point x="323" y="688"/>
      <point x="274" y="725"/>
      <point x="199" y="725" type="curve" smooth="yes"/>
      <point x="153" y="725"/>
      <point x="99" y="712"/>
      <point x="61" y="696" type="curve"/>
      <point x="64" y="665" type="line"/>
      <point x="122" y="689"/>
      <point x="164" y="695"/>
      <point x="197" y="695" type="curve" smooth="yes"/>
      <point x="251" y="695"/>
      <point x="299" y="679"/>
      <point x="295" y="583" type="curve"/>
      <point x="165" y="556" type="line" smooth="yes"/>
      <point x="117" y="546"/>
      <point x="45" y="521"/>
      <point x="45" y="438" type="curve" smooth="yes"/>
      <point x="45" y="377"/>
      <point x="87" y="335"/>
    </contour>
    <contour>
      <point x="163" y="365" type="curve" smooth="yes"/>
      <point x="111" y="365"/>
      <point x="75" y="386"/>
      <point x="75" y="441" type="curve" smooth="yes"/>
      <point x="75" y="500"/>
      <point x="125" y="520"/>
      <point x="177" y="530" type="curve" smooth="yes"/>
      <point x="259" y="546"/>
      <point x="280" y="554"/>
      <point x="295" y="560" type="curve"/>
      <point x="294" y="450" type="line"/>
      <point x="264" y="389"/>
      <point x="211" y="365"/>
    </contour>
  </outline>
</glyph>
<glyph name="logicalnot" format="2">
  <advance width="560"/>
  <unicode hex="00AC"/>
  <outline>
    <contour>
      <point x="460" y="65" type="curve"/>
      <point x="490" y="65" type="line"/>
      <point x="490" y="123"/>
      <point x="490" y="190"/>
      <point x="490" y="225" type="curve"/>
      <point x="490" y="310" type="line"/>
      <point x="432" y="310"/>
      <point x="365" y="310"/>
      <point x="330" y="310" type="curve"/>
      <point x="230" y="310" type="line"/>
      <point x="195" y="310"/>
      <point x="128" y="310"/>
      <point x="70" y="310" type="curve"/>
      <point x="70" y="280" type="line"/>
      <point x="128" y="280"/>
      <point x="195" y="280"/>
      <point x="230" y="280" type="curve"/>
      <point x="330" y="280" type="line"/>
      <point x="363" y="280"/>
      <point x="426" y="280"/>
      <point x="480" y="280" type="curve"/>
      <point x="460" y="300" type="line"/>
      <point x="460" y="225" type="line"/>
      <point x="460" y="190"/>
      <point x="460" y="123"/>
    </contour>
  </outline>
</glyph>
<glyph name="degree" format="2">
  <advance width="454"/>
  <unicode hex="00B0"/>
  <outline>
    <contour>
      <point x="227" y="328" type="curve" smooth="yes"/>
      <point x="335" y="328"/>
      <point x="414" y="401"/>
      <point x="414" y="510" type="curve" smooth="yes"/>
      <point x="414" y="616"/>
      <point x="335" y="696"/>
      <point x="228" y="696" type="curve" smooth="yes"/>
      <point x="120" y="696"/>
      <point x="40" y="616"/>
      <point x="40" y="510" type="curve" smooth="yes"/>
      <point x="40" y="401"/>
      <point x="120" y="328"/>
    </contour>
    <contour>
      <point x="227" y="359" type="curve"/>
      <point x="132" y="359"/>
      <point x="71" y="416"/>
      <point x="71" y="510" type="curve" smooth="yes"/>
      <point x="71" y="601"/>
      <point x="132" y="665"/>
      <point x="228" y="665" type="curve"/>
      <point x="323" y="665"/>
      <point x="383" y="601"/>
      <point x="383" y="510" type="curve" smooth="yes"/>
      <point x="383" y="416"/>
      <point x="323" y="359"/>
    </contour>
  </outline>
</glyph>
<glyph name="plusminus" format="2">
  <advance width="560"/>
  <unicode hex="00B1"/>
  <outline>
    <contour>
      <point x="70" y="0" type="line"/>
      <point x="128" y="0"/>
      <point x="195" y="0"/>
      <point x="230" y="0" type="curve"/>
      <point x="330" y="0" type="line"/>
      <point x="365" y="0"/>
      <point x="432" y="0"/>
      <point x="490" y="0" type="curve"/>
      <point x="490" y="30" type="line"/>
      <point x="432" y="30"/>
      <point x="365" y="30"/>
      <point x="330" y="30" type="curve"/>
      <point x="230" y="30" type="line"/>
      <point x="195" y="30"/>
      <point x="128" y="30"/>
      <point x="70" y="30" type="curve"/>
    </contour>
    <contour>
      <point x="70" y="353" type="line"/>
      <point x="128" y="353"/>
      <point x="195" y="353"/>
      <point x="230" y="353" type="curve"/>
      <point x="330" y="353" type="line"/>
      <point x="365" y="353"/>
      <point x="432" y="353"/>
      <point x="490" y="353" type="curve"/>
      <point x="490" y="383" type="line"/>
      <point x="432" y="383"/>
      <point x="365" y="383"/>
      <point x="330" y="383" type="curve"/>
      <point x="230" y="383" type="line"/>
      <point x="195" y="383"/>
      <point x="128" y="383"/>
      <point x="70" y="383" type="curve"/>
    </contour>
    <contour>
      <point x="265" y="138" type="curve"/>
      <point x="295" y="138" type="line"/>
      <point x="295" y="196"/>
      <point x="295" y="263"/>
      <point x="295" y="298" type="curve"/>
      <point x="295" y="438" type="line"/>
      <point x="295" y="473"/>
      <point x="295" y="540"/>
      <point x="295" y="598" type="curve"/>
      <point x="265" y="598" type="line"/>
      <point x="265" y="540"/>
      <point x="265" y="473"/>
      <point x="265" y="438" type="curve"/>
      <point x="265" y="298" type="line"/>
      <point x="265" y="263"/>
      <point x="265" y="196"/>
    </contour>
  </outline>
</glyph>
<glyph name="micro" format="2">
  <advance width="549"/>
  <unicode hex="00B5"/>
  <outline>
    <contour>
      <point x="90" y="-194" type="curve"/>
      <point x="120" y="-192" type="line"/>
      <point x="120" y="-117"/>
      <point x="120" y="-52"/>
      <point x="120" y="29" type="curve" smooth="yes"/>
      <point x="120" y="49" type="line"/>
      <point x="117" y="49" type="line"/>
      <point x="141" y="11"/>
      <point x="180" y="-9"/>
      <point x="242" y="-9" type="curve" smooth="yes"/>
      <point x="331" y="-9"/>
      <point x="394" y="53"/>
      <point x="424" y="95" type="curve"/>
      <point x="430" y="95" type="line"/>
      <point x="430" y="0" type="line"/>
      <point x="459" y="0" type="line"/>
      <point x="459" y="47"/>
      <point x="459" y="79"/>
      <point x="459" y="121" type="curve"/>
      <point x="459" y="271" type="line"/>
      <point x="459" y="352"/>
      <point x="459" y="419"/>
      <point x="459" y="494" type="curve"/>
      <point x="429" y="494" type="line"/>
      <point x="429" y="419"/>
      <point x="429" y="352"/>
      <point x="429" y="271" type="curve"/>
      <point x="429" y="150" type="line"/>
      <point x="384" y="80"/>
      <point x="324" y="23"/>
      <point x="243" y="23" type="curve" smooth="yes"/>
      <point x="150" y="23"/>
      <point x="120" y="73"/>
      <point x="120" y="169" type="curve"/>
      <point x="120" y="271" type="line"/>
      <point x="120" y="352"/>
      <point x="120" y="421"/>
      <point x="120" y="496" type="curve"/>
      <point x="90" y="494" type="line"/>
      <point x="90" y="419"/>
      <point x="90" y="352"/>
      <point x="90" y="271" type="curve"/>
      <point x="90" y="29" type="line"/>
      <point x="90" y="-52"/>
      <point x="90" y="-119"/>
    </contour>
  </outline>
</glyph>
<glyph name="ordmasculine" format="2">
  <advance width="452"/>
  <unicode hex="00BA"/>
  <outline>
    <contour>
      <point x="227" y="335" type="curve" smooth="yes"/>
      <point x="336" y="335"/>
      <point x="407" y="423"/>
      <point x="407" y="533" type="curve" smooth="yes"/>
      <point x="407" y="642"/>
      <point x="338" y="725"/>
      <point x="227" y="725" type="curve" smooth="yes"/>
      <point x="119" y="725"/>
      <point x="45" y="645"/>
      <point x="45" y="533" type="curve" smooth="yes"/>
      <point x="45" y="428"/>
      <point x="113" y="335"/>
    </contour>
    <contour>
      <point x="227" y="365" type="curve"/>
      <point x="125" y="365"/>
      <point x="75" y="447"/>
      <point x="75" y="533" type="curve" smooth="yes"/>
      <point x="75" y="623"/>
      <point x="128" y="695"/>
      <point x="227" y="695" type="curve"/>
      <point x="320" y="695"/>
      <point x="377" y="629"/>
      <point x="377" y="533" type="curve" smooth="yes"/>
      <point x="377" y="446"/>
      <point x="328" y="365"/>
    </contour>
  </outline>
</glyph>
<glyph name="AE" format="2">
  <advance width="951"/>
  <unicode hex="00C6"/>
  <anchor x="486" y="0" name="bottom"/>
  <anchor x="486" y="713" name="top"/>
  <outline>
    <contour>
      <point x="16" y="0" type="curve"/>
      <point x="53" y="0" type="line"/>
      <point x="106" y="90"/>
      <point x="165" y="189"/>
      <point x="216" y="276" type="curve"/>
      <point x="456" y="682" type="line"/>
      <point x="471" y="682" type="line"/>
      <point x="498" y="682" type="line"/>
      <point x="498" y="713" type="line"/>
      <point x="438" y="713" type="line"/>
      <point x="396" y="642"/>
      <point x="354" y="571"/>
      <point x="306" y="490" type="curve"/>
      <point x="159" y="242" type="line"/>
      <point x="114" y="166"/>
      <point x="61" y="76"/>
    </contour>
    <contour>
      <point x="158" y="203" type="line"/>
      <point x="487" y="203" type="line"/>
      <point x="487" y="233" type="line"/>
      <point x="158" y="233" type="line"/>
    </contour>
    <contour>
      <point x="470" y="0" type="curve"/>
      <point x="502" y="0" type="line"/>
      <point x="502" y="4" type="line"/>
      <point x="502" y="85"/>
      <point x="502" y="155"/>
      <point x="502" y="242" type="curve"/>
      <point x="502" y="472" type="line"/>
      <point x="502" y="559"/>
      <point x="502" y="629"/>
      <point x="502" y="710" type="curve"/>
      <point x="502" y="713" type="line"/>
      <point x="470" y="713" type="line"/>
      <point x="470" y="632"/>
      <point x="470" y="562"/>
      <point x="470" y="475" type="curve"/>
      <point x="470" y="238" type="line"/>
      <point x="470" y="151"/>
      <point x="470" y="81"/>
    </contour>
    <contour>
      <point x="496" y="0" type="line"/>
      <point x="888" y="0" type="line"/>
      <point x="888" y="31" type="line"/>
      <point x="818" y="31"/>
      <point x="699" y="31"/>
      <point x="636" y="31" type="curve"/>
      <point x="496" y="31" type="line"/>
    </contour>
    <contour>
      <point x="496" y="347" type="line"/>
      <point x="640" y="347" type="line"/>
      <point x="694" y="347"/>
      <point x="827" y="347"/>
      <point x="866" y="347" type="curve"/>
      <point x="866" y="378" type="line"/>
      <point x="801" y="378"/>
      <point x="726" y="378"/>
      <point x="641" y="378" type="curve"/>
      <point x="496" y="378" type="line"/>
    </contour>
    <contour>
      <point x="496" y="682" type="line"/>
      <point x="632" y="682" type="line"/>
      <point x="702" y="682"/>
      <point x="818" y="682"/>
      <point x="889" y="682" type="curve"/>
      <point x="889" y="713" type="line"/>
      <point x="496" y="713" type="line"/>
    </contour>
  </outline>
</glyph>
<glyph name="multiply" format="2">
  <advance width="554"/>
  <unicode hex="00D7"/>
  <outline>
    <contour>
      <point x="457" y="93" type="curve"/>
      <point x="479" y="115" type="line"/>
      <point x="438" y="156"/>
      <point x="390" y="203"/>
      <point x="365" y="228" type="curve"/>
      <point x="210" y="383" type="line"/>
      <point x="185" y="408"/>
      <point x="138" y="456"/>
      <point x="97" y="497" type="curve"/>
      <point x="75" y="475" type="line"/>
      <point x="116" y="434"/>
      <point x="164" y="387"/>
      <point x="189" y="362" type="curve"/>
      <point x="344" y="207" type="line"/>
      <point x="369" y="182"/>
      <point x="416" y="134"/>
    </contour>
    <contour>
      <point x="97" y="93" type="line"/>
      <point x="138" y="134"/>
      <point x="185" y="182"/>
      <point x="210" y="207" type="curve"/>
      <point x="365" y="362" type="line"/>
      <point x="390" y="387"/>
      <point x="438" y="434"/>
      <point x="479" y="475" type="curve"/>
      <point x="457" y="497" type="line"/>
      <point x="416" y="456"/>
      <point x="369" y="408"/>
      <point x="344" y="383" type="curve"/>
      <point x="189" y="228" type="line"/>
      <point x="164" y="203"/>
      <point x="116" y="156"/>
      <point x="75" y="115" type="curve"/>
    </contour>
  </outline>
</glyph>
<glyph name="Oslash" format="2">
  <advance width="819"/>
  <unicode hex="00D8"/>
  <anchor x="409" y="0" name="bottom"/>
  <anchor x="409" y="357" name="center"/>
  <anchor x="494" y="0" name="ogonek"/>
  <anchor x="409" y="713" name="top"/>
  <anchor x="27" y="713" name="topleft"/>
  <anchor x="722" y="713" name="topright"/>
  <outline>
    <contour>
      <point x="413" y="-9" type="curve" smooth="yes"/>
      <point x="625" y="-9"/>
      <point x="759" y="148"/>
      <point x="759" y="358" type="curve" smooth="yes"/>
      <point x="759" y="562"/>
      <point x="631" y="725"/>
      <point x="411" y="725" type="curve" smooth="yes"/>
      <point x="195" y="725"/>
      <point x="60" y="565"/>
      <point x="60" y="358" type="curve" smooth="yes"/>
      <point x="60" y="158"/>
      <point x="183" y="-9"/>
    </contour>
    <contour>
      <point x="411" y="24" type="curve"/>
      <point x="190" y="24"/>
      <point x="93" y="182"/>
      <point x="93" y="358" type="curve" smooth="yes"/>
      <point x="93" y="532"/>
      <point x="194" y="692"/>
      <point x="411" y="692" type="curve"/>
      <point x="621" y="692"/>
      <point x="726" y="544"/>
      <point x="726" y="358" type="curve" smooth="yes"/>
      <point x="726" y="186"/>
      <point x="632" y="24"/>
    </contour>
    <contour>
      <point x="122" y="-56" type="line"/>
      <point x="188" y="30"/>
      <point x="249" y="109"/>
      <point x="322" y="203" type="curve"/>
      <point x="519" y="463" type="line"/>
      <point x="592" y="558"/>
      <point x="651" y="635"/>
      <point x="719" y="724" type="curve"/>
      <point x="694" y="743" type="line"/>
      <point x="627" y="655"/>
      <point x="567" y="577"/>
      <point x="493" y="480" type="curve"/>
      <point x="298" y="223" type="line"/>
      <point x="226" y="129"/>
      <point x="168" y="55"/>
      <point x="98" y="-36" type="curve"/>
    </contour>
  </outline>
</glyph>
<glyph name="ae" format="2">
  <advance width="823"/>
  <unicode hex="00E6"/>
  <anchor x="402" y="0" name="bottom"/>
  <anchor x="402" y="494" name="top"/>
  <outline>
    <contour>
      <point x="618" y="-9" type="curve" smooth="yes"/>
      <point x="677" y="-9"/>
      <point x="734" y="4"/>
      <point x="772" y="27" type="curve"/>
      <point x="769" y="61" type="line"/>
      <point x="723" y="34"/>
      <point x="671" y="23"/>
      <point x="618" y="23" type="curve" smooth="yes"/>
      <point x="471" y="23"/>
      <point x="412" y="111"/>
      <point x="412" y="249" type="curve"/>
      <point x="412" y="251" type="line"/>
      <point x="412" y="379"/>
      <point x="470" y="472"/>
      <point x="592" y="472" type="curve"/>
      <point x="688" y="472"/>
      <point x="752" y="416"/>
      <point x="752" y="295" type="curve" smooth="yes"/>
      <point x="752" y="285"/>
      <point x="752" y="275"/>
      <point x="751" y="264" type="curve"/>
      <point x="778" y="237" type="line"/>
      <point x="781" y="256"/>
      <point x="782" y="274"/>
      <point x="782" y="297" type="curve" smooth="yes"/>
      <point x="782" y="427"/>
      <point x="708" y="504"/>
      <point x="591" y="504" type="curve" smooth="yes"/>
      <point x="460" y="504"/>
      <point x="382" y="398"/>
      <point x="382" y="251" type="curve" smooth="yes"/>
      <point x="382" y="101"/>
      <point x="452" y="-9"/>
    </contour>
    <contour>
      <point x="202" y="22" type="curve" smooth="yes"/>
      <point x="132" y="22"/>
      <point x="82" y="52"/>
      <point x="82" y="128" type="curve" smooth="yes"/>
      <point x="82" y="205"/>
      <point x="146" y="234"/>
      <point x="221" y="248" type="curve" smooth="yes"/>
      <point x="334" y="269"/>
      <point x="363" y="280"/>
      <point x="382" y="289" type="curve"/>
      <point x="381" y="141" type="line"/>
      <point x="341" y="56"/>
      <point x="267" y="22"/>
    </contour>
    <contour>
      <point x="202" y="-9" type="curve" smooth="yes"/>
      <point x="283" y="-9"/>
      <point x="367" y="38"/>
      <point x="411" y="131" type="curve"/>
      <point x="400" y="250" type="line"/>
      <point x="411" y="339" type="line"/>
      <point x="411" y="455"/>
      <point x="348" y="504"/>
      <point x="251" y="504" type="curve" smooth="yes"/>
      <point x="192" y="504"/>
      <point x="120" y="486"/>
      <point x="72" y="465" type="curve"/>
      <point x="75" y="432" type="line"/>
      <point x="151" y="463"/>
      <point x="205" y="472"/>
      <point x="251" y="472" type="curve" smooth="yes"/>
      <point x="324" y="472"/>
      <point x="387" y="450"/>
      <point x="382" y="312" type="curve"/>
      <point x="209" y="276" type="line" smooth="yes"/>
      <point x="140" y="262"/>
      <point x="51" y="231"/>
      <point x="51" y="127" type="curve" smooth="yes"/>
      <point x="51" y="46"/>
      <point x="106" y="-9"/>
    </contour>
    <contour>
      <point x="397" y="237" type="line"/>
      <point x="778" y="237" type="line"/>
      <point x="778" y="268" type="line"/>
      <point x="756" y="267" type="line"/>
      <point x="397" y="267" type="line"/>
    </contour>
  </outline>
</glyph>
<glyph name="eth" format="2">
  <advance width="588"/>
  <unicode hex="00F0"/>
  <outline>
    <contour>
      <point x="296" y="-9" type="curve" smooth="yes"/>
      <point x="444" y="-9"/>
      <point x="526" y="109"/>
      <point x="526" y="302" type="curve" smooth="yes"/>
      <point x="526" y="449"/>
      <point x="476" y="555"/>
      <point x="394" y="645" type="curve"/>
      <point x="358" y="685"/>
      <point x="316" y="719"/>
      <point x="270" y="748" type="curve"/>
      <point x="243" y="731" type="line"/>
      <point x="288" y="702"/>
      <point x="328" y="670"/>
      <point x="361" y="635" type="curve"/>
      <point x="449" y="545"/>
      <point x="495" y="436"/>
      <point x="495" y="301" type="curve" smooth="yes"/>
      <point x="495" y="128"/>
      <point x="430" y="23"/>
      <point x="296" y="23" type="curve"/>
      <point x="160" y="23"/>
      <point x="93" y="132"/>
      <point x="93" y="244" type="curve" smooth="yes"/>
      <point x="93" y="355"/>
      <point x="158" y="455"/>
      <point x="292" y="455" type="curve"/>
      <point x="342" y="455"/>
      <point x="423" y="442"/>
      <point x="499" y="347" type="curve"/>
      <point x="499" y="369"/>
      <point x="499" y="392"/>
      <point x="499" y="414" type="curve"/>
      <point x="477" y="413" type="line"/>
      <point x="416" y="468"/>
      <point x="351" y="487"/>
      <point x="292" y="487" type="curve" smooth="yes"/>
      <point x="153" y="487"/>
      <point x="62" y="380"/>
      <point x="62" y="244" type="curve" smooth="yes"/>
      <point x="62" y="111"/>
      <point x="150" y="-9"/>
    </contour>
    <contour>
      <point x="184" y="575" type="line"/>
      <point x="240" y="591"/>
      <point x="293" y="606"/>
      <point x="335" y="618" type="curve"/>
      <point x="380" y="631" type="line"/>
      <point x="422" y="643"/>
      <point x="474" y="658"/>
      <point x="530" y="674" type="curve"/>
      <point x="523" y="701" type="line"/>
      <point x="467" y="685"/>
      <point x="414" y="670"/>
      <point x="372" y="658" type="curve"/>
      <point x="327" y="645" type="line"/>
      <point x="285" y="633"/>
      <point x="234" y="618"/>
      <point x="177" y="602" type="curve"/>
    </contour>
  </outline>
</glyph>
<glyph name="oslash" format="2">
  <advance width="597"/>
  <unicode hex="00F8"/>
  <anchor x="298" y="494" name="top"/>
  <outline>
    <contour>
      <point x="300" y="-9" type="curve" smooth="yes"/>
      <point x="441" y="-9"/>
      <point x="535" y="106"/>
      <point x="535" y="251" type="curve" smooth="yes"/>
      <point x="535" y="395"/>
      <point x="444" y="504"/>
      <point x="300" y="504" type="curve" smooth="yes"/>
      <point x="160" y="504"/>
      <point x="62" y="399"/>
      <point x="62" y="251" type="curve" smooth="yes"/>
      <point x="62" y="113"/>
      <point x="151" y="-9"/>
    </contour>
    <contour>
      <point x="300" y="23" type="curve"/>
      <point x="161" y="23"/>
      <point x="93" y="134"/>
      <point x="93" y="251" type="curve" smooth="yes"/>
      <point x="93" y="374"/>
      <point x="165" y="472"/>
      <point x="300" y="472" type="curve"/>
      <point x="426" y="472"/>
      <point x="504" y="382"/>
      <point x="504" y="251" type="curve" smooth="yes"/>
      <point x="504" y="134"/>
      <point x="437" y="23"/>
    </contour>
    <contour>
      <point x="91" y="-56" type="line"/>
      <point x="140" y="8"/>
      <point x="183" y="64"/>
      <point x="236" y="133" type="curve"/>
      <point x="379" y="320" type="line"/>
      <point x="432" y="389"/>
      <point x="478" y="449"/>
      <point x="527" y="513" type="curve"/>
      <point x="503" y="530" type="line"/>
      <point x="455" y="467"/>
      <point x="412" y="411"/>
      <point x="357" y="339" type="curve"/>
      <point x="213" y="151" type="line"/>
      <point x="161" y="83"/>
      <point x="119" y="28"/>
      <point x="68" y="-39" type="curve"/>
    </contour>
  </outline>
</glyph>
<glyph name="dcroat" format="2">
  <advance width="572"/>
  <unicode hex="0111"/>
  <outline>
    <contour>
      <point x="257" y="612" type="line"/>
      <point x="312" y="612"/>
      <point x="363" y="612"/>
      <point x="406" y="612" type="curve"/>
      <point x="448" y="612" type="line"/>
      <point x="491" y="612"/>
      <point x="542" y="612"/>
      <point x="597" y="612" type="curve"/>
      <point x="597" y="640" type="line"/>
      <point x="542" y="640"/>
      <point x="491" y="640"/>
      <point x="448" y="640" type="curve"/>
      <point x="406" y="640" type="line"/>
      <point x="363" y="640"/>
      <point x="312" y="640"/>
      <point x="257" y="640" type="curve"/>
    </contour>
    <contour>
      <point x="283" y="-9" type="curve" smooth="yes"/>
      <point x="354" y="-9"/>
      <point x="409" y="19"/>
      <point x="451" y="70" type="curve"/>
      <point x="457" y="70" type="line"/>
      <point x="457" y="0" type="line"/>
      <point x="486" y="0" type="line"/>
      <point x="486" y="75"/>
      <point x="486" y="140"/>
      <point x="486" y="221" type="curve"/>
      <point x="486" y="494" type="line"/>
      <point x="486" y="579"/>
      <point x="486" y="657"/>
      <point x="486" y="739" type="curve"/>
      <point x="456" y="731" type="line"/>
      <point x="456" y="659"/>
      <point x="456" y="579"/>
      <point x="456" y="494" type="curve"/>
      <point x="456" y="435" type="line"/>
      <point x="450" y="435" type="line"/>
      <point x="420" y="469"/>
      <point x="360" y="504"/>
      <point x="285" y="504" type="curve" smooth="yes"/>
      <point x="146" y="504"/>
      <point x="62" y="396"/>
      <point x="62" y="249" type="curve" smooth="yes"/>
      <point x="62" y="110"/>
      <point x="137" y="-9"/>
    </contour>
    <contour>
      <point x="283" y="23" type="curve"/>
      <point x="149" y="23"/>
      <point x="93" y="131"/>
      <point x="93" y="249" type="curve" smooth="yes"/>
      <point x="93" y="372"/>
      <point x="154" y="472"/>
      <point x="285" y="472" type="curve"/>
      <point x="352" y="472"/>
      <point x="416" y="443"/>
      <point x="456" y="384" type="curve"/>
      <point x="456" y="124" type="line"/>
      <point x="416" y="60"/>
      <point x="361" y="23"/>
    </contour>
  </outline>
</glyph>
<glyph name="idotless" format="2">
  <advance width="240"/>
  <unicode hex="0131"/>
  <anchor x="120" y="0" name="bottom"/>
  <anchor x="135" y="0" name="ogonek"/>
  <anchor x="120" y="494" name="top"/>
  <outline>
    <contour>
      <point x="105" y="0" type="curve"/>
      <point x="135" y="0" type="line"/>
      <point x="135" y="75"/>
      <point x="135" y="140"/>
      <point x="135" y="221" type="curve"/>
      <point x="135" y="271" type="line"/>
      <point x="135" y="352"/>
      <point x="135" y="419"/>
      <point x="135" y="494" type="curve"/>
      <point x="105" y="494" type="line"/>
      <point x="105" y="419"/>
      <point x="105" y="352"/>
      <point x="105" y="271" type="curve"/>
      <point x="105" y="221" type="line"/>
      <point x="105" y="140"/>
      <point x="105" y="75"/>
    </contour>
  </outline>
</glyph>
<glyph name="kgreenlandic" format="2">
  <advance width="507"/>
  <unicode hex="0138"/>
  <outline>
    <contour>
      <point x="431" y="0" type="curve"/>
      <point x="480" y="0" type="line"/>
      <point x="411" y="57"/>
      <point x="341" y="113"/>
      <point x="272" y="170" type="curve"/>
      <point x="162" y="259" type="line"/>
      <point x="162" y="240" type="line"/>
      <point x="259" y="323" type="line"/>
      <point x="326" y="380"/>
      <point x="392" y="437"/>
      <point x="459" y="494" type="curve"/>
      <point x="413" y="494" type="line"/>
      <point x="356" y="445"/>
      <point x="298" y="395"/>
      <point x="241" y="346" type="curve"/>
      <point x="148" y="266" type="line"/>
      <point x="118" y="266" type="line"/>
      <point x="118" y="238" type="line"/>
      <point x="141" y="238" type="line"/>
      <point x="254" y="147" type="line"/>
      <point x="313" y="98"/>
      <point x="372" y="49"/>
    </contour>
    <contour>
      <point x="95" y="0" type="curve"/>
      <point x="125" y="0" type="line"/>
      <point x="125" y="75"/>
      <point x="125" y="140"/>
      <point x="125" y="221" type="curve"/>
      <point x="125" y="271" type="line"/>
      <point x="125" y="352"/>
      <point x="125" y="421"/>
      <point x="125" y="496" type="curve"/>
      <point x="95" y="494" type="line"/>
      <point x="95" y="419"/>
      <point x="95" y="352"/>
      <point x="95" y="271" type="curve"/>
      <point x="95" y="221" type="line"/>
      <point x="95" y="140"/>
      <point x="95" y="75"/>
    </contour>
  </outline>
</glyph>
<glyph name="Lslash" format="2">
  <advance width="566"/>
  <unicode hex="0141"/>
  <outline>
    <contour>
      <point x="110" y="0" type="curve"/>
      <point x="142" y="0" type="line"/>
      <point x="142" y="4" type="line"/>
      <point x="142" y="85"/>
      <point x="142" y="155"/>
      <point x="142" y="242" type="curve"/>
      <point x="142" y="475" type="line"/>
      <point x="142" y="562"/>
      <point x="142" y="632"/>
      <point x="142" y="713" type="curve"/>
      <point x="110" y="713" type="line"/>
      <point x="110" y="632"/>
      <point x="110" y="562"/>
      <point x="110" y="475" type="curve"/>
      <point x="110" y="238" type="line"/>
      <point x="110" y="151"/>
      <point x="110" y="81"/>
    </contour>
    <contour>
      <point x="0" y="295" type="line"/>
      <point x="61" y="313"/>
      <point x="118" y="330"/>
      <point x="168" y="345" type="curve"/>
      <point x="215" y="359" type="line"/>
      <point x="265" y="374"/>
      <point x="322" y="391"/>
      <point x="383" y="409" type="curve"/>
      <point x="375" y="438" type="line"/>
      <point x="314" y="420"/>
      <point x="257" y="403"/>
      <point x="206" y="388" type="curve"/>
      <point x="160" y="374" type="line"/>
      <point x="109" y="359"/>
      <point x="52" y="342"/>
      <point x="-9" y="324" type="curve"/>
    </contour>
    <contour>
      <point x="136" y="0" type="line"/>
      <point x="528" y="0" type="line"/>
      <point x="528" y="31" type="line"/>
      <point x="444" y="31"/>
      <point x="373" y="31"/>
      <point x="250" y="31" type="curve"/>
      <point x="136" y="31" type="line"/>
    </contour>
  </outline>
</glyph>
<glyph name="lslash" format="2">
  <advance width="260"/>
  <unicode hex="0142"/>
  <outline>
    <contour>
      <point x="0" y="288" type="line"/>
      <point x="44" y="301"/>
      <point x="82" y="312"/>
      <point x="119" y="323" type="curve"/>
      <point x="149" y="332" type="line"/>
      <point x="183" y="342"/>
      <point x="224" y="354"/>
      <point x="268" y="367" type="curve"/>
      <point x="260" y="394" type="line"/>
      <point x="216" y="381"/>
      <point x="178" y="370"/>
      <point x="141" y="359" type="curve"/>
      <point x="111" y="350" type="line"/>
      <point x="74" y="339"/>
      <point x="36" y="328"/>
      <point x="-8" y="315" type="curve"/>
    </contour>
    <contour>
      <point x="115" y="0" type="curve"/>
      <point x="145" y="0" type="line"/>
      <point x="145" y="75"/>
      <point x="145" y="140"/>
      <point x="145" y="221" type="curve"/>
      <point x="145" y="494" type="line"/>
      <point x="145" y="579"/>
      <point x="145" y="657"/>
      <point x="145" y="739" type="curve"/>
      <point x="115" y="731" type="line"/>
      <point x="115" y="659"/>
      <point x="115" y="579"/>
      <point x="115" y="494" type="curve"/>
      <point x="115" y="221" type="line"/>
      <point x="115" y="140"/>
      <point x="115" y="75"/>
    </contour>
  </outline>
</glyph>
<glyph name="Schwa" format="2">
  <advance width="793"/>
  <unicode hex="018F"/>
  <outline>
    <contour>
      <point x="402" y="-9" type="curve" smooth="yes"/>
      <point x="612" y="-9"/>
      <point x="733" y="148"/>
      <point x="733" y="358" type="curve" smooth="yes"/>
      <point x="733" y="580"/>
      <point x="602" y="725"/>
      <point x="396" y="725" type="curve" smooth="yes"/>
      <point x="274" y="725"/>
      <point x="171" y="671"/>
      <point x="114" y="621" type="curve"/>
      <point x="121" y="581" type="line"/>
      <point x="198" y="654"/>
      <point x="294" y="692"/>
      <point x="396" y="692" type="curve"/>
      <point x="587" y="692"/>
      <point x="699" y="570"/>
      <point x="700" y="361" type="curve"/>
      <point x="700" y="358" type="line"/>
      <point x="700" y="186"/>
      <point x="619" y="24"/>
      <point x="400" y="24" type="curve"/>
      <point x="182" y="24"/>
      <point x="93" y="182"/>
      <point x="93" y="358" type="curve"/>
      <point x="85" y="347" type="line"/>
      <point x="715" y="347" type="line"/>
      <point x="715" y="378" type="line"/>
      <point x="60" y="378" type="line"/>
      <point x="60" y="358" type="line"/>
      <point x="60" y="158"/>
      <point x="175" y="-9"/>
    </contour>
  </outline>
</glyph>
<glyph name="jdotless" format="2">
  <advance width="237"/>
  <unicode hex="0237"/>
  <anchor x="120" y="-192" name="bottom"/>
  <anchor x="119" y="494" name="top"/>
  <outline>
    <contour>
      <point x="16" y="-194" type="curve"/>
      <point x="60" y="-192" type="line"/>
      <point x="103" y="-148"/>
      <point x="135" y="-84"/>
      <point x="135" y="17" type="curve" smooth="yes"/>
      <point x="135" y="78"/>
      <point x="135" y="143"/>
      <point x="135" y="271" type="curve"/>
      <point x="135" y="352"/>
      <point x="135" y="419"/>
      <point x="135" y="494" type="curve"/>
      <point x="105" y="494" type="line"/>
      <point x="105" y="419"/>
      <point x="105" y="352"/>
      <point x="105" y="271" type="curve"/>
      <point x="105" y="221" type="line"/>
      <point x="105" y="25" type="line"/>
      <point x="105" y="-83"/>
      <point x="78" y="-131"/>
    </contour>
  </outline>
</glyph>
<glyph name="ringhalfleft" format="2">
  <advance width="194"/>
  <unicode hex="02BF"/>
  <outline>
    <contour>
      <point x="158" y="572" type="curve"/>
      <point x="158" y="600" type="line"/>
      <point x="119" y="600"/>
      <point x="89" y="621"/>
      <point x="89" y="665" type="curve" smooth="yes"/>
      <point x="89" y="706"/>
      <point x="119" y="730"/>
      <point x="159" y="730" type="curve"/>
      <point x="159" y="758" type="line"/>
      <point x="101" y="758"/>
      <point x="60" y="720"/>
      <point x="60" y="665" type="curve" smooth="yes"/>
      <point x="60" y="607"/>
      <point x="101" y="572"/>
    </contour>
  </outline>
</glyph>
<glyph name="brevecomb" format="2">
  <unicode hex="0306"/>
  <anchor x="300" y="494" name="_top"/>
  <anchor x="299" y="683" name="top"/>
  <outline>
    <contour>
      <point x="298" y="585" type="curve" smooth="yes"/>
      <point x="390" y="585"/>
      <point x="441" y="648"/>
      <point x="441" y="758" type="curve"/>
      <point x="412" y="758" type="line"/>
      <point x="412" y="656"/>
      <point x="370" y="616"/>
      <point x="298" y="616" type="curve"/>
      <point x="227" y="616"/>
      <point x="185" y="656"/>
      <point x="185" y="759" type="curve"/>
      <point x="156" y="758" type="line"/>
      <point x="156" y="648"/>
      <point x="208" y="585"/>
    </contour>
  </outline>
</glyph>
<glyph name="dotaccentcomb" format="2">
  <unicode hex="0307"/>
  <anchor x="99" y="494" name="_top"/>
  <anchor x="98" y="685" name="top"/>
  <outline>
    <contour>
      <point x="97" y="638" type="curve" smooth="yes"/>
      <point x="120" y="638"/>
      <point x="135" y="653"/>
      <point x="135" y="681" type="curve" smooth="yes"/>
      <point x="135" y="710"/>
      <point x="120" y="725"/>
      <point x="98" y="725" type="curve" smooth="yes"/>
      <point x="76" y="725"/>
      <point x="60" y="711"/>
      <point x="60" y="681" type="curve" smooth="yes"/>
      <point x="60" y="653"/>
      <point x="76" y="638"/>
    </contour>
  </outline>
</glyph>
<glyph name="hungarumlautcomb" format="2">
  <unicode hex="030B"/>
  <anchor x="300" y="494" name="_top"/>
  <anchor x="299" y="736" name="top"/>
  <outline>
    <contour>
      <point x="344" y="586" type="curve"/>
      <point x="377" y="587" type="line"/>
      <point x="429" y="651"/>
      <point x="480" y="714"/>
      <point x="532" y="779" type="curve"/>
      <point x="489" y="778" type="line"/>
      <point x="441" y="715"/>
      <point x="393" y="650"/>
    </contour>
    <contour>
      <point x="180" y="586" type="curve"/>
      <point x="211" y="587" type="line"/>
      <point x="257" y="651"/>
      <point x="301" y="714"/>
      <point x="346" y="779" type="curve"/>
      <point x="305" y="778" type="line"/>
      <point x="264" y="714"/>
      <point x="223" y="651"/>
    </contour>
  </outline>
</glyph>
<glyph name="horncomb" format="2">
  <unicode hex="031B"/>
  <anchor x="300" y="494" name="_topright"/>
  <outline>
    <contour>
      <point x="239" y="376" type="line"/>
      <point x="321" y="376"/>
      <point x="371" y="422"/>
      <point x="371" y="503" type="curve" smooth="yes"/>
      <point x="371" y="538"/>
      <point x="361" y="579"/>
      <point x="349" y="613" type="curve"/>
      <point x="319" y="611" type="line"/>
      <point x="330" y="578"/>
      <point x="341" y="532"/>
      <point x="341" y="503" type="curve"/>
      <point x="341" y="451"/>
      <point x="322" y="404"/>
      <point x="224" y="404" type="curve"/>
    </contour>
  </outline>
</glyph>
<glyph name="dotbelowcomb" format="2">
  <unicode hex="0323"/>
  <anchor x="300" y="0" name="_bottom"/>
  <anchor x="300" y="0" name="bottom"/>
  <outline>
    <contour>
      <point x="299" y="-202" type="curve" smooth="yes"/>
      <point x="322" y="-202"/>
      <point x="337" y="-187"/>
      <point x="337" y="-159" type="curve" smooth="yes"/>
      <point x="337" y="-130"/>
      <point x="322" y="-115"/>
      <point x="300" y="-115" type="curve" smooth="yes"/>
      <point x="278" y="-115"/>
      <point x="262" y="-129"/>
      <point x="262" y="-159" type="curve" smooth="yes"/>
      <point x="262" y="-187"/>
      <point x="278" y="-202"/>
    </contour>
  </outline>
</glyph>
<glyph name="dieresisbelowcomb" format="2">
  <unicode hex="0324"/>
  <anchor x="300" y="0" name="_bottom"/>
  <outline>
    <contour>
      <point x="398" y="-198" type="curve" smooth="yes"/>
      <point x="420" y="-198"/>
      <point x="434" y="-184"/>
      <point x="434" y="-157" type="curve" smooth="yes"/>
      <point x="434" y="-129"/>
      <point x="420" y="-115"/>
      <point x="399" y="-115" type="curve" smooth="yes"/>
      <point x="378" y="-115"/>
      <point x="363" y="-128"/>
      <point x="363" y="-157" type="curve" smooth="yes"/>
      <point x="363" y="-184"/>
      <point x="378" y="-198"/>
    </contour>
    <contour>
      <point x="198" y="-198" type="curve" smooth="yes"/>
      <point x="220" y="-198"/>
      <point x="234" y="-184"/>
      <point x="234" y="-157" type="curve" smooth="yes"/>
      <point x="234" y="-129"/>
      <point x="220" y="-115"/>
      <point x="199" y="-115" type="curve" smooth="yes"/>
      <point x="178" y="-115"/>
      <point x="163" y="-128"/>
      <point x="163" y="-157" type="curve" smooth="yes"/>
      <point x="163" y="-184"/>
      <point x="178" y="-198"/>
    </contour>
  </outline>
</glyph>
<glyph name="commaaccentcomb" format="2">
  <unicode hex="0326"/>
  <anchor x="300" y="0" name="_bottom"/>
  <anchor x="300" y="-273" name="bottom"/>
  <outline>
    <contour>
      <point x="249" y="-282" type="curve"/>
      <point x="272" y="-281" type="line"/>
      <point x="309" y="-252"/>
      <point x="335" y="-199"/>
      <point x="335" y="-156" type="curve" smooth="yes"/>
      <point x="335" y="-133"/>
      <point x="325" y="-116"/>
      <point x="303" y="-115" type="curve"/>
      <point x="282" y="-116" type="line"/>
      <point x="282" y="-132"/>
      <point x="282" y="-149"/>
      <point x="282" y="-165" type="curve"/>
      <point x="282" y="-221"/>
      <point x="279" y="-247"/>
    </contour>
  </outline>
</glyph>
<glyph name="pi" format="2">
  <advance width="582"/>
  <unicode hex="03C0"/>
  <outline>
    <contour>
      <point x="424" y="0" type="curve"/>
      <point x="454" y="0" type="line"/>
      <point x="454" y="65"/>
      <point x="454" y="127"/>
      <point x="454" y="186" type="curve"/>
      <point x="454" y="494" type="line"/>
      <point x="424" y="494" type="line"/>
      <point x="424" y="378"/>
      <point x="424" y="328"/>
      <point x="424" y="190" type="curve"/>
      <point x="424" y="175"/>
      <point x="424" y="74"/>
    </contour>
    <contour>
      <point x="135" y="0" type="curve"/>
      <point x="165" y="0" type="line"/>
      <point x="165" y="74"/>
      <point x="165" y="143"/>
      <point x="165" y="223" type="curve"/>
      <point x="165" y="287" type="line"/>
      <point x="165" y="362"/>
      <point x="165" y="424"/>
      <point x="165" y="494" type="curve"/>
      <point x="135" y="494" type="line"/>
      <point x="135" y="420"/>
      <point x="135" y="351"/>
      <point x="135" y="271" type="curve"/>
      <point x="135" y="223" type="line"/>
      <point x="135" y="142"/>
      <point x="135" y="75"/>
    </contour>
    <contour>
      <point x="29" y="466" type="line"/>
      <point x="151" y="466" type="line"/>
      <point x="338" y="466" type="line"/>
      <point x="406" y="466"/>
      <point x="479" y="466"/>
      <point x="549" y="466" type="curve"/>
      <point x="549" y="494" type="line"/>
      <point x="29" y="494" type="line"/>
    </contour>
  </outline>
</glyph>
<glyph name="endash" format="2">
  <advance width="570"/>
  <unicode hex="2013"/>
  <outline>
    <contour>
      <point x="70" y="281" type="line"/>
      <point x="128" y="281"/>
      <point x="195" y="281"/>
      <point x="230" y="281" type="curve"/>
      <point x="340" y="281" type="line"/>
      <point x="375" y="281"/>
      <point x="442" y="281"/>
      <point x="500" y="281" type="curve"/>
      <point x="500" y="309" type="line"/>
      <point x="442" y="309"/>
      <point x="375" y="309"/>
      <point x="340" y="309" type="curve"/>
      <point x="230" y="309" type="line"/>
      <point x="195" y="309"/>
      <point x="128" y="309"/>
      <point x="70" y="309" type="curve"/>
    </contour>
  </outline>
</glyph>
<glyph name="emdash" format="2">
  <advance width="780"/>
  <unicode hex="2014"/>
  <outline>
    <contour>
      <point x="70" y="281" type="line"/>
      <point x="156" y="281"/>
      <point x="256" y="281"/>
      <point x="308" y="281" type="curve"/>
      <point x="472" y="281" type="line"/>
      <point x="524" y="281"/>
      <point x="624" y="281"/>
      <point x="710" y="281" type="curve"/>
      <point x="710" y="309" type="line"/>
      <point x="624" y="309"/>
      <point x="524" y="309"/>
      <point x="472" y="309" type="curve"/>
      <point x="308" y="309" type="line"/>
      <point x="256" y="309"/>
      <point x="156" y="309"/>
      <point x="70" y="309" type="curve"/>
    </contour>
  </outline>
</glyph>
<glyph name="dagger" format="2">
  <advance width="560"/>
  <unicode hex="2020"/>
  <outline>
    <contour>
      <point x="265" y="0" type="curve"/>
      <point x="295" y="0" type="line"/>
      <point x="295" y="146"/>
      <point x="295" y="273"/>
      <point x="295" y="431" type="curve"/>
      <point x="295" y="447" type="line"/>
      <point x="295" y="532"/>
      <point x="295" y="612"/>
      <point x="295" y="684" type="curve"/>
      <point x="265" y="684" type="line"/>
      <point x="265" y="612"/>
      <point x="265" y="532"/>
      <point x="265" y="447" type="curve"/>
      <point x="265" y="431" type="line"/>
      <point x="265" y="273"/>
      <point x="265" y="146"/>
    </contour>
    <contour>
      <point x="60" y="430" type="line"/>
      <point x="118" y="430"/>
      <point x="185" y="430"/>
      <point x="220" y="430" type="curve"/>
      <point x="340" y="430" type="line"/>
      <point x="375" y="430"/>
      <point x="442" y="430"/>
      <point x="500" y="430" type="curve"/>
      <point x="500" y="460" type="line"/>
      <point x="442" y="460"/>
      <point x="375" y="460"/>
      <point x="340" y="460" type="curve"/>
      <point x="220" y="460" type="line"/>
      <point x="185" y="460"/>
      <point x="118" y="460"/>
      <point x="60" y="460" type="curve"/>
    </contour>
  </outline>
</glyph>
<glyph name="daggerdbl" format="2">
  <advance width="560"/>
  <unicode hex="2021"/>
  <outline>
    <contour>
      <point x="265" y="0" type="curve"/>
      <point x="295" y="0" type="line"/>
      <point x="295" y="78"/>
      <point x="295" y="146"/>
      <point x="295" y="231" type="curve"/>
      <point x="295" y="447" type="line"/>
      <point x="295" y="532"/>
      <point x="295" y="612"/>
      <point x="295" y="684" type="curve"/>
      <point x="265" y="684" type="line"/>
      <point x="265" y="612"/>
      <point x="265" y="532"/>
      <point x="265" y="447" type="curve"/>
      <point x="265" y="231" type="line"/>
      <point x="265" y="146"/>
      <point x="265" y="78"/>
    </contour>
    <contour>
      <point x="60" y="440" type="line"/>
      <point x="118" y="440"/>
      <point x="185" y="440"/>
      <point x="220" y="440" type="curve"/>
      <point x="340" y="440" type="line"/>
      <point x="375" y="440"/>
      <point x="442" y="440"/>
      <point x="500" y="440" type="curve"/>
      <point x="500" y="470" type="line"/>
      <point x="442" y="470"/>
      <point x="375" y="470"/>
      <point x="340" y="470" type="curve"/>
      <point x="220" y="470" type="line"/>
      <point x="185" y="470"/>
      <point x="118" y="470"/>
      <point x="60" y="470" type="curve"/>
    </contour>
    <contour>
      <point x="60" y="210" type="line"/>
      <point x="118" y="210"/>
      <point x="185" y="210"/>
      <point x="220" y="210" type="curve"/>
      <point x="340" y="210" type="line"/>
      <point x="375" y="210"/>
      <point x="442" y="210"/>
      <point x="500" y="210" type="curve"/>
      <point x="500" y="240" type="line"/>
      <point x="442" y="240"/>
      <point x="375" y="240"/>
      <point x="340" y="240" type="curve"/>
      <point x="220" y="240" type="line"/>
      <point x="185" y="240"/>
      <point x="118" y="240"/>
      <point x="60" y="240" type="curve"/>
    </contour>
  </outline>
</glyph>
<glyph name="bullet" format="2">
  <advance width="406"/>
  <unicode hex="2022"/>
  <outline>
    <contour>
      <point x="202" y="191" type="curve" smooth="yes"/>
      <point x="267" y="191"/>
      <point x="306" y="237"/>
      <point x="306" y="295" type="curve" smooth="yes"/>
      <point x="306" y="353"/>
      <point x="267" y="397"/>
      <point x="203" y="397" type="curve" smooth="yes"/>
      <point x="138" y="397"/>
      <point x="100" y="353"/>
      <point x="100" y="295" type="curve" smooth="yes"/>
      <point x="100" y="237"/>
      <point x="138" y="191"/>
    </contour>
  </outline>
</glyph>
<glyph name="colonsign" format="2">
  <advance width="656"/>
  <unicode hex="20A1"/>
  <outline>
    <contour>
      <point x="399" y="-9" type="curve" smooth="yes"/>
      <point x="466" y="-9"/>
      <point x="541" y="6"/>
      <point x="597" y="45" type="curve"/>
      <point x="591" y="79" type="line"/>
      <point x="532" y="37"/>
      <point x="462" y="23"/>
      <point x="397" y="23" type="curve"/>
      <point x="198" y="23"/>
      <point x="92" y="166"/>
      <point x="92" y="344" type="curve" smooth="yes"/>
      <point x="92" y="537"/>
      <point x="213" y="664"/>
      <point x="385" y="664" type="curve"/>
      <point x="452" y="664"/>
      <point x="524" y="647"/>
      <point x="597" y="604" type="curve"/>
      <point x="602" y="638" type="line"/>
      <point x="558" y="663"/>
      <point x="478" y="696"/>
      <point x="386" y="696" type="curve" smooth="yes"/>
      <point x="200" y="696"/>
      <point x="60" y="553"/>
      <point x="60" y="345" type="curve" smooth="yes"/>
      <point x="60" y="147"/>
      <point x="189" y="-9"/>
    </contour>
    <contour>
      <point x="183" y="-137" type="curve"/>
      <point x="214" y="-137" type="line"/>
      <point x="243" y="0"/>
      <point x="276" y="154"/>
      <point x="284" y="192" type="curve"/>
      <point x="344" y="474" type="line"/>
      <point x="352" y="512"/>
      <point x="385" y="666"/>
      <point x="414" y="803" type="curve"/>
      <point x="383" y="803" type="line"/>
      <point x="354" y="666"/>
      <point x="321" y="512"/>
      <point x="313" y="474" type="curve"/>
      <point x="253" y="192" type="line"/>
      <point x="245" y="154"/>
      <point x="212" y="0"/>
    </contour>
    <contour>
      <point x="310" y="-137" type="curve"/>
      <point x="341" y="-137" type="line"/>
      <point x="370" y="0"/>
      <point x="403" y="154"/>
      <point x="411" y="192" type="curve"/>
      <point x="471" y="474" type="line"/>
      <point x="479" y="512"/>
      <point x="512" y="666"/>
      <point x="541" y="803" type="curve"/>
      <point x="510" y="803" type="line"/>
      <point x="481" y="666"/>
      <point x="448" y="512"/>
      <point x="440" y="474" type="curve"/>
      <point x="380" y="192" type="line"/>
      <point x="372" y="154"/>
      <point x="339" y="0"/>
    </contour>
  </outline>
</glyph>
<glyph name="franc" format="2">
  <advance width="568"/>
  <unicode hex="20A3"/>
  <outline>
    <contour>
      <point x="127" y="0" type="curve"/>
      <point x="158" y="0" type="line"/>
      <point x="158" y="78"/>
      <point x="158" y="145"/>
      <point x="158" y="228" type="curve"/>
      <point x="158" y="453" type="line"/>
      <point x="158" y="537"/>
      <point x="158" y="604"/>
      <point x="158" y="682" type="curve"/>
      <point x="158" y="684" type="line"/>
      <point x="127" y="684" type="line"/>
      <point x="127" y="607"/>
      <point x="127" y="540"/>
      <point x="127" y="456" type="curve"/>
      <point x="127" y="228" type="line"/>
      <point x="127" y="145"/>
      <point x="127" y="78"/>
    </contour>
    <contour>
      <point x="152" y="654" type="line"/>
      <point x="272" y="654" type="line"/>
      <point x="376" y="654"/>
      <point x="449" y="654"/>
      <point x="516" y="654" type="curve"/>
      <point x="516" y="684" type="line"/>
      <point x="152" y="684" type="line"/>
    </contour>
    <contour>
      <point x="152" y="333" type="line"/>
      <point x="279" y="333" type="line"/>
      <point x="359" y="333"/>
      <point x="429" y="333"/>
      <point x="494" y="333" type="curve"/>
      <point x="494" y="363" type="line"/>
      <point x="429" y="363"/>
      <point x="359" y="363"/>
      <point x="280" y="363" type="curve"/>
      <point x="152" y="363" type="line"/>
    </contour>
    <contour>
      <point x="38" y="158" type="line"/>
      <point x="96" y="158"/>
      <point x="163" y="158"/>
      <point x="198" y="158" type="curve"/>
      <point x="228" y="158" type="line"/>
      <point x="263" y="158"/>
      <point x="330" y="158"/>
      <point x="388" y="158" type="curve"/>
      <point x="388" y="186" type="line"/>
      <point x="330" y="186"/>
      <point x="263" y="186"/>
      <point x="228" y="186" type="curve"/>
      <point x="198" y="186" type="line"/>
      <point x="163" y="186"/>
      <point x="96" y="186"/>
      <point x="38" y="186" type="curve"/>
    </contour>
  </outline>
</glyph>
<glyph name="peseta" format="2">
  <advance width="701"/>
  <unicode hex="20A7"/>
  <outline>
    <contour>
      <point x="163" y="298" type="line"/>
      <point x="201" y="298"/>
      <point x="266" y="298"/>
      <point x="314" y="298" type="curve"/>
      <point x="509" y="298"/>
      <point x="565" y="387"/>
      <point x="565" y="504" type="curve" smooth="yes"/>
      <point x="565" y="621"/>
      <point x="498" y="684"/>
      <point x="352" y="684" type="curve"/>
      <point x="260" y="684"/>
      <point x="186" y="684"/>
      <point x="137" y="684" type="curve"/>
      <point x="157" y="654" type="line"/>
      <point x="350" y="654" type="line" smooth="yes"/>
      <point x="419" y="654"/>
      <point x="533" y="650"/>
      <point x="533" y="504" type="curve" smooth="yes"/>
      <point x="533" y="366"/>
      <point x="450" y="328"/>
      <point x="313" y="328" type="curve" smooth="yes"/>
      <point x="163" y="328" type="line"/>
    </contour>
    <contour>
      <point x="137" y="0" type="curve"/>
      <point x="168" y="0" type="line"/>
      <point x="168" y="78"/>
      <point x="168" y="145"/>
      <point x="168" y="228" type="curve"/>
      <point x="168" y="453" type="line"/>
      <point x="168" y="537"/>
      <point x="168" y="604"/>
      <point x="168" y="682" type="curve"/>
      <point x="137" y="684" type="line"/>
      <point x="137" y="607"/>
      <point x="137" y="540"/>
      <point x="137" y="456" type="curve"/>
      <point x="137" y="228" type="line"/>
      <point x="137" y="145"/>
      <point x="137" y="78"/>
    </contour>
    <contour>
      <point x="38" y="486" type="line"/>
      <point x="96" y="486"/>
      <point x="163" y="486"/>
      <point x="198" y="486" type="curve"/>
      <point x="503" y="486" type="line"/>
      <point x="538" y="486"/>
      <point x="605" y="486"/>
      <point x="663" y="486" type="curve"/>
      <point x="663" y="514" type="line"/>
      <point x="605" y="514"/>
      <point x="538" y="514"/>
      <point x="503" y="514" type="curve"/>
      <point x="198" y="514" type="line"/>
      <point x="163" y="514"/>
      <point x="96" y="514"/>
      <point x="38" y="514" type="curve"/>
    </contour>
  </outline>
</glyph>
<glyph name="dong" format="2">
  <advance width="560"/>
  <unicode hex="20AB"/>
  <outline>
    <contour>
      <point x="246" y="139" type="curve" smooth="yes"/>
      <point x="306" y="139"/>
      <point x="351" y="161"/>
      <point x="386" y="202" type="curve"/>
      <point x="392" y="202" type="line"/>
      <point x="392" y="146" type="line"/>
      <point x="420" y="146" type="line"/>
      <point x="420" y="206"/>
      <point x="420" y="258"/>
      <point x="420" y="323" type="curve"/>
      <point x="420" y="542" type="line"/>
      <point x="420" y="610"/>
      <point x="420" y="673"/>
      <point x="420" y="738" type="curve"/>
      <point x="390" y="732" type="line"/>
      <point x="390" y="674"/>
      <point x="390" y="610"/>
      <point x="390" y="542" type="curve"/>
      <point x="390" y="495" type="line"/>
      <point x="385" y="495" type="line"/>
      <point x="360" y="522"/>
      <point x="310" y="550"/>
      <point x="248" y="550" type="curve" smooth="yes"/>
      <point x="132" y="550"/>
      <point x="61" y="463"/>
      <point x="61" y="345" type="curve" smooth="yes"/>
      <point x="61" y="234"/>
      <point x="124" y="139"/>
    </contour>
    <contour>
      <point x="50" y="0" type="line"/>
      <point x="108" y="0"/>
      <point x="175" y="0"/>
      <point x="210" y="0" type="curve"/>
      <point x="310" y="0" type="line"/>
      <point x="345" y="0"/>
      <point x="412" y="0"/>
      <point x="470" y="0" type="curve"/>
      <point x="470" y="28" type="line"/>
      <point x="412" y="28"/>
      <point x="345" y="28"/>
      <point x="310" y="28" type="curve"/>
      <point x="210" y="28" type="line"/>
      <point x="175" y="28"/>
      <point x="108" y="28"/>
      <point x="50" y="28" type="curve"/>
    </contour>
    <contour>
      <point x="248" y="169" type="curve"/>
      <point x="137" y="169"/>
      <point x="92" y="254"/>
      <point x="92" y="345" type="curve" smooth="yes"/>
      <point x="92" y="441"/>
      <point x="141" y="519"/>
      <point x="249" y="519" type="curve"/>
      <point x="302" y="519"/>
      <point x="356" y="499"/>
      <point x="390" y="452" type="curve"/>
      <point x="390" y="247" type="line"/>
      <point x="358" y="198"/>
      <point x="313" y="169"/>
    </contour>
    <contour>
      <point x="190" y="640" type="line"/>
      <point x="248" y="640"/>
      <point x="314" y="640"/>
      <point x="350" y="640" type="curve"/>
      <point x="370" y="640" type="line"/>
      <point x="406" y="640"/>
      <point x="472" y="640"/>
      <point x="530" y="640" type="curve"/>
      <point x="530" y="668" type="line"/>
      <point x="472" y="668"/>
      <point x="406" y="668"/>
      <point x="370" y="668" type="curve"/>
      <point x="350" y="668" type="line"/>
      <point x="314" y="668"/>
      <point x="248" y="668"/>
      <point x="190" y="668" type="curve"/>
    </contour>
  </outline>
</glyph>
<glyph name="euro" format="2">
  <advance width="700"/>
  <unicode hex="20AC"/>
  <outline>
    <contour>
      <point x="443" y="-9" type="curve" smooth="yes"/>
      <point x="510" y="-9"/>
      <point x="585" y="3"/>
      <point x="641" y="40" type="curve"/>
      <point x="635" y="74" type="line"/>
      <point x="576" y="34"/>
      <point x="506" y="23"/>
      <point x="441" y="23" type="curve"/>
      <point x="243" y="23"/>
      <point x="146" y="166"/>
      <point x="146" y="344" type="curve" smooth="yes"/>
      <point x="146" y="537"/>
      <point x="258" y="664"/>
      <point x="429" y="664" type="curve"/>
      <point x="496" y="664"/>
      <point x="568" y="648"/>
      <point x="640" y="610" type="curve"/>
      <point x="645" y="644" type="line"/>
      <point x="600" y="666"/>
      <point x="522" y="696"/>
      <point x="430" y="696" type="curve" smooth="yes"/>
      <point x="244" y="696"/>
      <point x="114" y="553"/>
      <point x="114" y="345" type="curve" smooth="yes"/>
      <point x="114" y="147"/>
      <point x="233" y="-9"/>
    </contour>
    <contour>
      <point x="31" y="259" type="line"/>
      <point x="89" y="259"/>
      <point x="156" y="259"/>
      <point x="191" y="259" type="curve"/>
      <point x="341" y="259" type="line"/>
      <point x="376" y="259"/>
      <point x="443" y="259"/>
      <point x="501" y="259" type="curve"/>
      <point x="501" y="287" type="line"/>
      <point x="443" y="287"/>
      <point x="376" y="287"/>
      <point x="341" y="287" type="curve"/>
      <point x="191" y="287" type="line"/>
      <point x="156" y="287"/>
      <point x="89" y="287"/>
      <point x="31" y="287" type="curve"/>
    </contour>
    <contour>
      <point x="31" y="389" type="line"/>
      <point x="89" y="389"/>
      <point x="156" y="389"/>
      <point x="191" y="389" type="curve"/>
      <point x="371" y="389" type="line"/>
      <point x="406" y="389"/>
      <point x="473" y="389"/>
      <point x="531" y="389" type="curve"/>
      <point x="531" y="417" type="line"/>
      <point x="473" y="417"/>
      <point x="406" y="417"/>
      <point x="371" y="417" type="curve"/>
      <point x="191" y="417" type="line"/>
      <point x="156" y="417"/>
      <point x="89" y="417"/>
      <point x="31" y="417" type="curve"/>
    </contour>
  </outline>
</glyph>
<glyph name="kip" format="2">
  <advance width="651"/>
  <unicode hex="20AD"/>
  <outline>
    <contour>
      <point x="567" y="0" type="curve"/>
      <point x="613" y="0" type="line"/>
      <point x="552" y="56"/>
      <point x="450" y="149"/>
      <point x="378" y="215" type="curve"/>
      <point x="221" y="359" type="line"/>
      <point x="221" y="346" type="line"/>
      <point x="365" y="476" type="line"/>
      <point x="436" y="541"/>
      <point x="514" y="612"/>
      <point x="594" y="684" type="curve"/>
      <point x="548" y="684" type="line"/>
      <point x="463" y="607"/>
      <point x="406" y="555"/>
      <point x="341" y="496" type="curve"/>
      <point x="200" y="368" type="line"/>
      <point x="160" y="368" type="line"/>
      <point x="160" y="340" type="line"/>
      <point x="197" y="340" type="line"/>
      <point x="361" y="189" type="line"/>
      <point x="424" y="131"/>
      <point x="492" y="69"/>
    </contour>
    <contour>
      <point x="137" y="0" type="curve"/>
      <point x="168" y="0" type="line"/>
      <point x="168" y="78"/>
      <point x="168" y="145"/>
      <point x="168" y="228" type="curve"/>
      <point x="168" y="456" type="line"/>
      <point x="168" y="540"/>
      <point x="168" y="607"/>
      <point x="168" y="684" type="curve"/>
      <point x="137" y="684" type="line"/>
      <point x="137" y="607"/>
      <point x="137" y="540"/>
      <point x="137" y="456" type="curve"/>
      <point x="137" y="228" type="line"/>
      <point x="137" y="145"/>
      <point x="137" y="78"/>
    </contour>
    <contour>
      <point x="38" y="340" type="line"/>
      <point x="96" y="340"/>
      <point x="163" y="340"/>
      <point x="198" y="340" type="curve"/>
      <point x="398" y="340" type="line"/>
      <point x="433" y="340"/>
      <point x="500" y="340"/>
      <point x="558" y="340" type="curve"/>
      <point x="558" y="368" type="line"/>
      <point x="500" y="368"/>
      <point x="433" y="368"/>
      <point x="398" y="368" type="curve"/>
      <point x="198" y="368" type="line"/>
      <point x="163" y="368"/>
      <point x="96" y="368"/>
      <point x="38" y="368" type="curve"/>
    </contour>
  </outline>
</glyph>
<glyph name="guarani" format="2">
  <advance width="706"/>
  <unicode hex="20B2"/>
  <outline>
    <contour>
      <point x="417" y="-9" type="curve" smooth="yes"/>
      <point x="506" y="-9"/>
      <point x="587" y="16"/>
      <point x="628" y="36" type="curve"/>
      <point x="624" y="71" type="line"/>
      <point x="563" y="37"/>
      <point x="484" y="23"/>
      <point x="417" y="23" type="curve"/>
      <point x="191" y="23"/>
      <point x="92" y="163"/>
      <point x="92" y="345" type="curve" smooth="yes"/>
      <point x="92" y="538"/>
      <point x="212" y="664"/>
      <point x="391" y="664" type="curve"/>
      <point x="461" y="664"/>
      <point x="534" y="647"/>
      <point x="611" y="605" type="curve"/>
      <point x="616" y="638" type="line"/>
      <point x="571" y="663"/>
      <point x="487" y="696"/>
      <point x="391" y="696" type="curve" smooth="yes"/>
      <point x="195" y="696"/>
      <point x="60" y="549"/>
      <point x="60" y="345" type="curve" smooth="yes"/>
      <point x="60" y="147"/>
      <point x="181" y="-9"/>
    </contour>
    <contour>
      <point x="359" y="-137" type="curve"/>
      <point x="389" y="-137" type="line"/>
      <point x="389" y="1"/>
      <point x="389" y="154"/>
      <point x="389" y="192" type="curve"/>
      <point x="389" y="474" type="line"/>
      <point x="389" y="512"/>
      <point x="389" y="665"/>
      <point x="389" y="803" type="curve"/>
      <point x="359" y="803" type="line"/>
      <point x="359" y="665"/>
      <point x="359" y="512"/>
      <point x="359" y="474" type="curve"/>
      <point x="359" y="192" type="line"/>
      <point x="359" y="154"/>
      <point x="359" y="1"/>
    </contour>
    <contour>
      <point x="597" y="35" type="curve"/>
      <point x="628" y="36" type="line"/>
      <point x="628" y="101"/>
      <point x="628" y="136"/>
      <point x="628" y="192" type="curve"/>
      <point x="628" y="245"/>
      <point x="628" y="287"/>
      <point x="628" y="335" type="curve"/>
      <point x="597" y="335" type="line"/>
      <point x="597" y="287"/>
      <point x="597" y="245"/>
      <point x="597" y="192" type="curve"/>
      <point x="597" y="134"/>
      <point x="597" y="101"/>
    </contour>
  </outline>
</glyph>
<glyph name="cedi" format="2">
  <advance width="656"/>
  <unicode hex="20B5"/>
  <outline>
    <contour>
      <point x="356" y="-137" type="curve"/>
      <point x="386" y="-137" type="line"/>
      <point x="386" y="1"/>
      <point x="386" y="154"/>
      <point x="386" y="192" type="curve"/>
      <point x="386" y="474" type="line"/>
      <point x="386" y="512"/>
      <point x="386" y="665"/>
      <point x="386" y="803" type="curve"/>
      <point x="356" y="803" type="line"/>
      <point x="356" y="665"/>
      <point x="356" y="512"/>
      <point x="356" y="474" type="curve"/>
      <point x="356" y="192" type="line"/>
      <point x="356" y="154"/>
      <point x="356" y="1"/>
    </contour>
    <contour>
      <point x="399" y="-9" type="curve" smooth="yes"/>
      <point x="466" y="-9"/>
      <point x="541" y="6"/>
      <point x="597" y="45" type="curve"/>
      <point x="591" y="79" type="line"/>
      <point x="532" y="37"/>
      <point x="462" y="23"/>
      <point x="397" y="23" type="curve"/>
      <point x="198" y="23"/>
      <point x="92" y="166"/>
      <point x="92" y="344" type="curve" smooth="yes"/>
      <point x="92" y="537"/>
      <point x="213" y="664"/>
      <point x="385" y="664" type="curve"/>
      <point x="452" y="664"/>
      <point x="524" y="647"/>
      <point x="597" y="604" type="curve"/>
      <point x="602" y="638" type="line"/>
      <point x="558" y="663"/>
      <point x="478" y="696"/>
      <point x="386" y="696" type="curve" smooth="yes"/>
      <point x="200" y="696"/>
      <point x="60" y="553"/>
      <point x="60" y="345" type="curve" smooth="yes"/>
      <point x="60" y="147"/>
      <point x="189" y="-9"/>
    </contour>
  </outline>
</glyph>
<glyph name="manat" format="2">
  <advance width="773"/>
  <unicode hex="20BC"/>
  <outline>
    <contour>
      <point x="100" y="0" type="curve"/>
      <point x="131" y="0" type="line"/>
      <point x="131" y="78"/>
      <point x="131" y="145"/>
      <point x="131" y="228" type="curve"/>
      <point x="131" y="402"/>
      <point x="200" y="538"/>
      <point x="387" y="538" type="curve"/>
      <point x="570" y="538"/>
      <point x="642" y="413"/>
      <point x="642" y="228" type="curve"/>
      <point x="642" y="145"/>
      <point x="642" y="78"/>
      <point x="642" y="0" type="curve"/>
      <point x="673" y="0" type="line"/>
      <point x="673" y="78"/>
      <point x="673" y="145"/>
      <point x="673" y="228" type="curve"/>
      <point x="673" y="430"/>
      <point x="583" y="570"/>
      <point x="387" y="570" type="curve" smooth="yes"/>
      <point x="194" y="570"/>
      <point x="100" y="432"/>
      <point x="100" y="228" type="curve"/>
      <point x="100" y="145"/>
      <point x="100" y="78"/>
    </contour>
    <contour>
      <point x="372" y="0" type="curve"/>
      <point x="402" y="0" type="line"/>
      <point x="402" y="118"/>
      <point x="402" y="221"/>
      <point x="402" y="329" type="curve"/>
      <point x="402" y="396" type="line"/>
      <point x="402" y="504"/>
      <point x="402" y="607"/>
      <point x="402" y="725" type="curve"/>
      <point x="372" y="725" type="line"/>
      <point x="372" y="607"/>
      <point x="372" y="504"/>
      <point x="372" y="396" type="curve"/>
      <point x="372" y="329" type="line"/>
      <point x="372" y="221"/>
      <point x="372" y="118"/>
    </contour>
  </outline>
</glyph>
<glyph name="literSign" format="2">
  <advance width="542"/>
  <unicode hex="2113"/>
  <outline>
    <contour>
      <point x="358" y="-9" type="curve" smooth="yes"/>
      <point x="410" y="-9"/>
      <point x="452" y="8"/>
      <point x="483" y="28" type="curve"/>
      <point x="476" y="60" type="line"/>
      <point x="433" y="32"/>
      <point x="395" y="21"/>
      <point x="358" y="21" type="curve"/>
      <point x="237" y="21"/>
      <point x="201" y="115"/>
      <point x="201" y="269" type="curve" smooth="yes"/>
      <point x="201" y="416" type="line" smooth="yes"/>
      <point x="201" y="600"/>
      <point x="255" y="666"/>
      <point x="320" y="666" type="curve" smooth="yes"/>
      <point x="378" y="666"/>
      <point x="422" y="622"/>
      <point x="422" y="518" type="curve" smooth="yes"/>
      <point x="422" y="323"/>
      <point x="318" y="224"/>
      <point x="182" y="224" type="curve"/>
      <point x="147" y="224"/>
      <point x="86" y="235"/>
      <point x="40" y="262" type="curve"/>
      <point x="37" y="231" type="line"/>
      <point x="76" y="210"/>
      <point x="133" y="195"/>
      <point x="182" y="195" type="curve" smooth="yes"/>
      <point x="366" y="195"/>
      <point x="452" y="347"/>
      <point x="452" y="519" type="curve" smooth="yes"/>
      <point x="452" y="647"/>
      <point x="392" y="696"/>
      <point x="320" y="696" type="curve" smooth="yes"/>
      <point x="225" y="696"/>
      <point x="171" y="599"/>
      <point x="171" y="416" type="curve" smooth="yes"/>
      <point x="171" y="269" type="line" smooth="yes"/>
      <point x="171" y="96"/>
      <point x="219" y="-9"/>
    </contour>
  </outline>
</glyph>
<glyph name="Ohm" format="2">
  <advance width="795"/>
  <unicode hex="2126"/>
  <outline>
    <contour>
      <point x="40" y="0" type="line"/>
      <point x="317" y="0" type="line"/>
      <point x="317" y="67"/>
      <point x="317" y="123"/>
      <point x="317" y="195" type="curve"/>
      <point x="169" y="252"/>
      <point x="109" y="341"/>
      <point x="109" y="454" type="curve" smooth="yes"/>
      <point x="109" y="585"/>
      <point x="201" y="692"/>
      <point x="399" y="692" type="curve"/>
      <point x="590" y="692"/>
      <point x="686" y="593"/>
      <point x="686" y="454" type="curve" smooth="yes"/>
      <point x="686" y="342"/>
      <point x="627" y="252"/>
      <point x="478" y="195" type="curve"/>
      <point x="478" y="123"/>
      <point x="478" y="67"/>
      <point x="478" y="0" type="curve"/>
      <point x="755" y="0" type="line"/>
      <point x="755" y="31" type="line"/>
      <point x="703" y="31"/>
      <point x="622" y="31"/>
      <point x="570" y="31" type="curve"/>
      <point x="494" y="31" type="line"/>
      <point x="510" y="16" type="line"/>
      <point x="510" y="78"/>
      <point x="510" y="129"/>
      <point x="510" y="195" type="curve"/>
      <point x="484" y="165" type="line"/>
      <point x="634" y="222"/>
      <point x="719" y="314"/>
      <point x="719" y="453" type="curve" smooth="yes"/>
      <point x="719" y="608"/>
      <point x="603" y="725"/>
      <point x="399" y="725" type="curve" smooth="yes"/>
      <point x="198" y="725"/>
      <point x="76" y="611"/>
      <point x="76" y="453" type="curve" smooth="yes"/>
      <point x="76" y="322"/>
      <point x="154" y="224"/>
      <point x="311" y="165" type="curve"/>
      <point x="285" y="195" type="line"/>
      <point x="285" y="129"/>
      <point x="285" y="78"/>
      <point x="285" y="16" type="curve"/>
      <point x="301" y="31" type="line"/>
      <point x="225" y="31" type="line"/>
      <point x="173" y="31"/>
      <point x="92" y="31"/>
      <point x="40" y="31" type="curve"/>
    </contour>
  </outline>
</glyph>
<glyph name="estimated" format="2">
  <advance width="843"/>
  <unicode hex="212E"/>
  <outline>
    <contour>
      <point x="438" y="-9" type="curve" smooth="yes"/>
      <point x="590" y="-9"/>
      <point x="715" y="45"/>
      <point x="784" y="179" type="curve"/>
      <point x="717" y="179" type="line"/>
      <point x="671" y="63"/>
      <point x="575" y="16"/>
      <point x="438" y="16" type="curve" smooth="yes"/>
      <point x="207" y="16"/>
      <point x="75" y="145"/>
      <point x="75" y="343" type="curve" smooth="yes"/>
      <point x="75" y="540"/>
      <point x="209" y="671"/>
      <point x="421" y="671" type="curve" smooth="yes"/>
      <point x="635" y="671"/>
      <point x="755" y="552"/>
      <point x="768" y="342" type="curve"/>
      <point x="803" y="334" type="line"/>
      <point x="792" y="569"/>
      <point x="646" y="696"/>
      <point x="421" y="696" type="curve" smooth="yes"/>
      <point x="198" y="696"/>
      <point x="40" y="556"/>
      <point x="40" y="343" type="curve" smooth="yes"/>
      <point x="40" y="127"/>
      <point x="198" y="-9"/>
    </contour>
    <contour>
      <point x="140" y="124" type="curve"/>
      <point x="140" y="568" type="line"/>
      <point x="81" y="498"/>
      <point x="53" y="420"/>
      <point x="53" y="346" type="curve" smooth="yes"/>
      <point x="53" y="272"/>
      <point x="81" y="183"/>
    </contour>
    <contour>
      <point x="61" y="334" type="line"/>
      <point x="803" y="334" type="line"/>
      <point x="790" y="363" type="line"/>
      <point x="61" y="363" type="line"/>
    </contour>
    <contour>
      <point x="701" y="346" type="line"/>
      <point x="788" y="346" type="line"/>
      <point x="780" y="420"/>
      <point x="760" y="498"/>
      <point x="701" y="568" type="curve"/>
    </contour>
  </outline>
</glyph>
<glyph name="emptyset" format="2">
  <advance width="646"/>
  <unicode hex="2205"/>
  <outline>
    <contour>
      <point x="116" y="4" type="line"/>
      <point x="165" y="68"/>
      <point x="208" y="124"/>
      <point x="261" y="193" type="curve"/>
      <point x="404" y="380" type="line"/>
      <point x="457" y="449"/>
      <point x="503" y="509"/>
      <point x="552" y="573" type="curve"/>
      <point x="528" y="590" type="line"/>
      <point x="480" y="527"/>
      <point x="437" y="471"/>
      <point x="382" y="399" type="curve"/>
      <point x="238" y="211" type="line"/>
      <point x="186" y="143"/>
      <point x="144" y="88"/>
      <point x="93" y="21" type="curve"/>
    </contour>
    <contour>
      <point x="322" y="36" type="curve" smooth="yes"/>
      <point x="471" y="36"/>
      <point x="581" y="137"/>
      <point x="581" y="296" type="curve" smooth="yes"/>
      <point x="581" y="451"/>
      <point x="472" y="558"/>
      <point x="324" y="558" type="curve" smooth="yes"/>
      <point x="174" y="558"/>
      <point x="65" y="449"/>
      <point x="65" y="296" type="curve" smooth="yes"/>
      <point x="65" y="137"/>
      <point x="174" y="36"/>
    </contour>
    <contour>
      <point x="322" y="67" type="curve"/>
      <point x="196" y="67"/>
      <point x="96" y="140"/>
      <point x="96" y="296" type="curve" smooth="yes"/>
      <point x="96" y="443"/>
      <point x="198" y="526"/>
      <point x="324" y="526" type="curve"/>
      <point x="450" y="526"/>
      <point x="550" y="443"/>
      <point x="550" y="296" type="curve" smooth="yes"/>
      <point x="550" y="140"/>
      <point x="450" y="67"/>
    </contour>
  </outline>
</glyph>
<glyph name="increment" format="2">
  <advance width="676"/>
  <unicode hex="2206"/>
  <outline>
    <contour>
      <point x="40" y="0" type="line"/>
      <point x="73" y="0" type="line"/>
      <point x="73" y="22" type="line"/>
      <point x="106" y="105"/>
      <point x="143" y="195"/>
      <point x="175" y="275" type="curve"/>
      <point x="337" y="677" type="line"/>
      <point x="343" y="677" type="line"/>
      <point x="504" y="272" type="line"/>
      <point x="534" y="196"/>
      <point x="570" y="105"/>
      <point x="603" y="22" type="curve"/>
      <point x="603" y="0" type="line"/>
      <point x="636" y="0" type="line"/>
      <point x="636" y="26" type="line"/>
      <point x="609" y="94"/>
      <point x="579" y="169"/>
      <point x="551" y="240" type="curve"/>
      <point x="453" y="487" type="line"/>
      <point x="418" y="575"/>
      <point x="392" y="640"/>
      <point x="363" y="713" type="curve"/>
      <point x="317" y="713" type="line"/>
      <point x="289" y="643"/>
      <point x="261" y="574"/>
      <point x="226" y="487" type="curve"/>
      <point x="127" y="241" type="line"/>
      <point x="99" y="172"/>
      <point x="68" y="95"/>
      <point x="40" y="25" type="curve"/>
    </contour>
    <contour>
      <point x="56" y="0" type="line"/>
      <point x="623" y="0" type="line"/>
      <point x="623" y="31" type="line"/>
      <point x="56" y="31" type="line"/>
    </contour>
  </outline>
</glyph>
<glyph name="product" format="2">
  <advance width="778"/>
  <unicode hex="220F"/>
  <outline>
    <contour>
      <point x="586" y="-192" type="curve"/>
      <point x="618" y="-192" type="line"/>
      <point x="618" y="-91"/>
      <point x="618" y="-3"/>
      <point x="618" y="106" type="curve"/>
      <point x="618" y="412" type="line"/>
      <point x="618" y="521"/>
      <point x="618" y="608"/>
      <point x="618" y="709" type="curve"/>
      <point x="618" y="713" type="line"/>
      <point x="586" y="713" type="line"/>
      <point x="586" y="709" type="line"/>
      <point x="586" y="608"/>
      <point x="586" y="521"/>
      <point x="586" y="412" type="curve"/>
      <point x="586" y="106" type="line"/>
      <point x="586" y="-3"/>
      <point x="586" y="-91"/>
    </contour>
    <contour>
      <point x="161" y="-192" type="curve"/>
      <point x="193" y="-192" type="line"/>
      <point x="193" y="-91"/>
      <point x="193" y="-3"/>
      <point x="193" y="106" type="curve"/>
      <point x="193" y="412" type="line"/>
      <point x="193" y="521"/>
      <point x="193" y="608"/>
      <point x="193" y="709" type="curve"/>
      <point x="193" y="713" type="line"/>
      <point x="161" y="713" type="line"/>
      <point x="161" y="709" type="line"/>
      <point x="161" y="608"/>
      <point x="161" y="521"/>
      <point x="161" y="412" type="curve"/>
      <point x="161" y="106" type="line"/>
      <point x="161" y="-3"/>
      <point x="161" y="-91"/>
    </contour>
    <contour>
      <point x="35" y="682" type="line"/>
      <point x="84" y="682"/>
      <point x="182" y="682"/>
      <point x="241" y="682" type="curve"/>
      <point x="537" y="682" type="line"/>
      <point x="595" y="682"/>
      <point x="694" y="682"/>
      <point x="743" y="682" type="curve"/>
      <point x="743" y="713" type="line"/>
      <point x="35" y="713" type="line"/>
    </contour>
  </outline>
</glyph>
<glyph name="integral" format="2">
  <advance width="374"/>
  <unicode hex="222B"/>
  <outline>
    <contour>
      <point x="79" y="-202" type="curve" smooth="yes"/>
      <point x="142" y="-202"/>
      <point x="202" y="-167"/>
      <point x="202" y="-40" type="curve" smooth="yes"/>
      <point x="202" y="87"/>
      <point x="202" y="374"/>
      <point x="202" y="581" type="curve" smooth="yes"/>
      <point x="202" y="666"/>
      <point x="229" y="712"/>
      <point x="295" y="712" type="curve"/>
      <point x="321" y="712"/>
      <point x="340" y="708"/>
      <point x="360" y="701" type="curve"/>
      <point x="364" y="733" type="line"/>
      <point x="345" y="740"/>
      <point x="321" y="744"/>
      <point x="295" y="744" type="curve" smooth="yes"/>
      <point x="232" y="744"/>
      <point x="172" y="709"/>
      <point x="172" y="582" type="curve" smooth="yes"/>
      <point x="172" y="455"/>
      <point x="172" y="168"/>
      <point x="172" y="-39" type="curve" smooth="yes"/>
      <point x="172" y="-124"/>
      <point x="145" y="-170"/>
      <point x="79" y="-170" type="curve"/>
      <point x="53" y="-170"/>
      <point x="34" y="-166"/>
      <point x="14" y="-159" type="curve"/>
      <point x="10" y="-191" type="line"/>
      <point x="29" y="-198"/>
      <point x="53" y="-202"/>
    </contour>
  </outline>
</glyph>
<glyph name="approxequal" format="2">
  <advance width="560"/>
  <unicode hex="2248"/>
  <outline>
    <contour>
      <point x="391" y="325" type="curve" smooth="yes"/>
      <point x="446" y="325"/>
      <point x="490" y="364"/>
      <point x="490" y="436" type="curve"/>
      <point x="461" y="436" type="line"/>
      <point x="461" y="380"/>
      <point x="429" y="356"/>
      <point x="387" y="356" type="curve"/>
      <point x="316" y="356"/>
      <point x="257" y="449"/>
      <point x="170" y="449" type="curve" smooth="yes"/>
      <point x="115" y="449"/>
      <point x="70" y="410"/>
      <point x="70" y="338" type="curve"/>
      <point x="99" y="338" type="line"/>
      <point x="99" y="394"/>
      <point x="132" y="418"/>
      <point x="174" y="418" type="curve"/>
      <point x="245" y="418"/>
      <point x="304" y="325"/>
    </contour>
    <contour>
      <point x="390" y="123" type="curve" smooth="yes"/>
      <point x="445" y="123"/>
      <point x="490" y="162"/>
      <point x="490" y="234" type="curve"/>
      <point x="461" y="234" type="line"/>
      <point x="461" y="178"/>
      <point x="428" y="153"/>
      <point x="386" y="153" type="curve"/>
      <point x="315" y="153"/>
      <point x="257" y="247"/>
      <point x="170" y="247" type="curve" smooth="yes"/>
      <point x="115" y="247"/>
      <point x="70" y="208"/>
      <point x="70" y="136" type="curve"/>
      <point x="99" y="136" type="line"/>
      <point x="99" y="192"/>
      <point x="132" y="217"/>
      <point x="174" y="217" type="curve"/>
      <point x="245" y="217"/>
      <point x="303" y="123"/>
    </contour>
  </outline>
</glyph>
<glyph name="greaterequal" format="2">
  <advance width="560"/>
  <unicode hex="2265"/>
  <outline>
    <contour>
      <point x="70" y="0" type="line"/>
      <point x="128" y="0"/>
      <point x="195" y="0"/>
      <point x="230" y="0" type="curve"/>
      <point x="330" y="0" type="line"/>
      <point x="365" y="0"/>
      <point x="432" y="0"/>
      <point x="490" y="0" type="curve"/>
      <point x="490" y="30" type="line"/>
      <point x="432" y="30"/>
      <point x="365" y="30"/>
      <point x="330" y="30" type="curve"/>
      <point x="230" y="30" type="line"/>
      <point x="195" y="30"/>
      <point x="128" y="30"/>
      <point x="70" y="30" type="curve"/>
    </contour>
    <contour>
      <point x="70" y="163" type="line"/>
      <point x="127" y="189"/>
      <point x="183" y="214"/>
      <point x="231" y="236" type="curve"/>
      <point x="331" y="281" type="line"/>
      <point x="377" y="302"/>
      <point x="433" y="327"/>
      <point x="490" y="353" type="curve"/>
      <point x="490" y="385" type="line"/>
      <point x="433" y="411"/>
      <point x="377" y="436"/>
      <point x="331" y="457" type="curve"/>
      <point x="231" y="502" type="line"/>
      <point x="183" y="524"/>
      <point x="127" y="549"/>
      <point x="70" y="575" type="curve"/>
      <point x="70" y="542" type="line"/>
      <point x="150" y="506"/>
      <point x="235" y="468"/>
      <point x="317" y="431" type="curve"/>
      <point x="448" y="372" type="line"/>
      <point x="448" y="366" type="line"/>
      <point x="317" y="307" type="line"/>
      <point x="235" y="270"/>
      <point x="150" y="232"/>
      <point x="70" y="196" type="curve"/>
    </contour>
  </outline>
</glyph>
<glyph name="lozenge" format="2">
  <advance width="590"/>
  <unicode hex="25CA"/>
  <outline>
    <contour>
      <point x="272" y="10" type="curve"/>
      <point x="318" y="10" type="line"/>
      <point x="385" y="106"/>
      <point x="453" y="201"/>
      <point x="520" y="297" type="curve"/>
      <point x="453" y="393"/>
      <point x="385" y="488"/>
      <point x="318" y="584" type="curve"/>
      <point x="272" y="584" type="line"/>
      <point x="205" y="488"/>
      <point x="137" y="393"/>
      <point x="70" y="297" type="curve"/>
      <point x="137" y="201"/>
      <point x="205" y="106"/>
    </contour>
    <contour>
      <point x="292" y="38" type="line"/>
      <point x="230" y="124"/>
      <point x="169" y="211"/>
      <point x="107" y="297" type="curve"/>
      <point x="169" y="383"/>
      <point x="230" y="470"/>
      <point x="292" y="556" type="curve"/>
      <point x="298" y="556" type="line"/>
      <point x="360" y="470"/>
      <point x="421" y="383"/>
      <point x="483" y="297" type="curve"/>
      <point x="421" y="211"/>
      <point x="360" y="124"/>
      <point x="298" y="38" type="curve"/>
    </contour>
  </outline>
</glyph>
<glyph name="OE.001" format="2">
  <advance width="1207"/>
  <anchor x="604" y="0" name="bottom"/>
  <anchor x="604" y="713" name="top"/>
  <outline>
    <contour>
      <point x="413" y="-9" type="curve" smooth="yes"/>
      <point x="624" y="-9"/>
      <point x="757" y="148"/>
      <point x="757" y="358" type="curve"/>
      <point x="757" y="359" type="line"/>
      <point x="757" y="563"/>
      <point x="630" y="725"/>
      <point x="411" y="725" type="curve" smooth="yes"/>
      <point x="195" y="725"/>
      <point x="60" y="565"/>
      <point x="60" y="358" type="curve" smooth="yes"/>
      <point x="60" y="158"/>
      <point x="183" y="-9"/>
    </contour>
    <contour>
      <point x="411" y="24" type="curve"/>
      <point x="190" y="24"/>
      <point x="93" y="182"/>
      <point x="93" y="358" type="curve" smooth="yes"/>
      <point x="93" y="532"/>
      <point x="194" y="692"/>
      <point x="411" y="692" type="curve"/>
      <point x="621" y="692"/>
      <point x="726" y="544"/>
      <point x="726" y="358" type="curve" smooth="yes"/>
      <point x="726" y="186"/>
      <point x="632" y="24"/>
    </contour>
    <contour>
      <point x="726" y="0" type="curve"/>
      <point x="758" y="0" type="line"/>
      <point x="758" y="4" type="line"/>
      <point x="758" y="85"/>
      <point x="758" y="155"/>
      <point x="758" y="242" type="curve"/>
      <point x="758" y="472" type="line"/>
      <point x="758" y="559"/>
      <point x="758" y="629"/>
      <point x="758" y="710" type="curve"/>
      <point x="758" y="713" type="line"/>
      <point x="726" y="713" type="line"/>
      <point x="726" y="632"/>
      <point x="726" y="562"/>
      <point x="726" y="475" type="curve"/>
      <point x="726" y="238" type="line"/>
      <point x="726" y="151"/>
      <point x="726" y="81"/>
    </contour>
    <contour>
      <point x="752" y="0" type="line"/>
      <point x="1144" y="0" type="line"/>
      <point x="1144" y="31" type="line"/>
      <point x="1067" y="31"/>
      <point x="985" y="31"/>
      <point x="892" y="31" type="curve"/>
      <point x="752" y="31" type="line"/>
    </contour>
    <contour>
      <point x="752" y="347" type="line"/>
      <point x="896" y="347" type="line"/>
      <point x="990" y="347"/>
      <point x="1053" y="347"/>
      <point x="1122" y="347" type="curve"/>
      <point x="1122" y="378" type="line"/>
      <point x="1057" y="378"/>
      <point x="993" y="378"/>
      <point x="897" y="378" type="curve"/>
      <point x="752" y="378" type="line"/>
    </contour>
    <contour>
      <point x="752" y="682" type="line"/>
      <point x="888" y="682" type="line"/>
      <point x="998" y="682"/>
      <point x="1074" y="682"/>
      <point x="1145" y="682" type="curve"/>
      <point x="1145" y="713" type="line"/>
      <point x="752" y="713" type="line"/>
    </contour>
  </outline>
</glyph>
<glyph name="_Q_tail" format="2">
  <advance width="768"/>
  <anchor x="384" y="0" name="_bottom"/>
  <outline>
    <contour>
      <point x="652" y="-164" type="curve"/>
      <point x="683" y="-146" type="line"/>
      <point x="630" y="-106"/>
      <point x="591" y="-76"/>
      <point x="550" y="-45" type="curve"/>
      <point x="456" y="27" type="line"/>
      <point x="437" y="4" type="line"/>
      <point x="522" y="-62" type="line"/>
      <point x="566" y="-97"/>
      <point x="609" y="-130"/>
    </contour>
  </outline>
</glyph>
<glyph name=".notdef" format="2">
  <advance width="635"/>
  <outline>
    <contour>
      <point x="50" y="-192" type="line"/>
      <point x="585" y="-192" type="line"/>
      <point x="585" y="818" type="line"/>
      <point x="50" y="818" type="line"/>
    </contour>
    <contour>
      <point x="308" y="9" type="curve" smooth="yes"/>
      <point x="332" y="9"/>
      <point x="346" y="23"/>
      <point x="346" y="46" type="curve" smooth="yes"/>
      <point x="346" y="70"/>
      <point x="332" y="84"/>
      <point x="308" y="84" type="curve" smooth="yes"/>
      <point x="286" y="84"/>
      <point x="271" y="70"/>
      <point x="271" y="46" type="curve" smooth="yes"/>
      <point x="271" y="23"/>
      <point x="286" y="9"/>
    </contour>
    <contour>
      <point x="80" y="-162" type="line"/>
      <point x="80" y="788" type="line"/>
      <point x="555" y="788" type="line"/>
      <point x="555" y="-162" type="line"/>
    </contour>
    <contour>
      <point x="329" y="191" type="curve" smooth="yes"/>
      <point x="350" y="191"/>
      <point x="373" y="195"/>
      <point x="386" y="199" type="curve"/>
      <point x="383" y="224" type="line"/>
      <point x="372" y="220"/>
      <point x="353" y="214"/>
      <point x="329" y="214" type="curve" smooth="yes"/>
      <point x="291" y="214"/>
      <point x="258" y="229"/>
      <point x="258" y="274" type="curve" smooth="yes"/>
      <point x="258" y="314"/>
      <point x="296" y="343"/>
      <point x="337" y="374" type="curve" smooth="yes"/>
      <point x="387" y="412"/>
      <point x="445" y="454"/>
      <point x="445" y="528" type="curve" smooth="yes"/>
      <point x="445" y="600"/>
      <point x="389" y="640"/>
      <point x="312" y="640" type="curve" smooth="yes"/>
      <point x="261" y="640"/>
      <point x="216" y="622"/>
      <point x="191" y="610" type="curve"/>
      <point x="193" y="582" type="line"/>
      <point x="235" y="603"/>
      <point x="274" y="614"/>
      <point x="313" y="614" type="curve" smooth="yes"/>
      <point x="379" y="614"/>
      <point x="419" y="584"/>
      <point x="419" y="529" type="curve" smooth="yes"/>
      <point x="419" y="466"/>
      <point x="369" y="427"/>
      <point x="321" y="392" type="curve" smooth="yes"/>
      <point x="276" y="359"/>
      <point x="232" y="326"/>
      <point x="232" y="274" type="curve" smooth="yes"/>
      <point x="232" y="224"/>
      <point x="272" y="191"/>
    </contour>
  </outline>
</glyph>
<glyph name="_slash.Lslash" format="2">
  <advance width="576"/>
  <anchor x="287" y="357" name="_center"/>
  <outline>
    <contour>
      <point x="10" y="295" type="line"/>
      <point x="71" y="313"/>
      <point x="128" y="330"/>
      <point x="178" y="345" type="curve"/>
      <point x="225" y="359" type="line"/>
      <point x="275" y="374"/>
      <point x="332" y="391"/>
      <point x="393" y="409" type="curve"/>
      <point x="385" y="438" type="line"/>
      <point x="324" y="420"/>
      <point x="267" y="403"/>
      <point x="216" y="388" type="curve"/>
      <point x="170" y="374" type="line"/>
      <point x="119" y="359"/>
      <point x="62" y="342"/>
      <point x="1" y="324" type="curve"/>
    </contour>
  </outline>
</glyph>
<glyph name="brevecomb.narrow" format="2">
  <anchor x="300" y="494" name="_top"/>
  <anchor x="299" y="683" name="top"/>
  <outline>
    <contour>
      <point x="298" y="585" type="curve" smooth="yes"/>
      <point x="381" y="585"/>
      <point x="428" y="648"/>
      <point x="428" y="758" type="curve"/>
      <point x="400" y="758" type="line"/>
      <point x="400" y="656"/>
      <point x="362" y="616"/>
      <point x="298" y="616" type="curve"/>
      <point x="234" y="616"/>
      <point x="197" y="656"/>
      <point x="197" y="759" type="curve"/>
      <point x="169" y="758" type="line"/>
      <point x="169" y="649"/>
      <point x="216" y="585"/>
    </contour>
  </outline>
</glyph>
<glyph name="brevecomb_gravecomb.case" format="2">
  <anchor x="298.5" y="494" name="_top"/>
  <outline>
    <contour>
      <point x="298" y="575" type="curve" smooth="yes"/>
      <point x="390" y="575"/>
      <point x="441" y="638"/>
      <point x="441" y="718" type="curve"/>
      <point x="412" y="718" type="line"/>
      <point x="412" y="646"/>
      <point x="370" y="606"/>
      <point x="298" y="606" type="curve"/>
      <point x="227" y="606"/>
      <point x="185" y="646"/>
      <point x="185" y="719" type="curve"/>
      <point x="156" y="718" type="line"/>
      <point x="156" y="638"/>
      <point x="208" y="575"/>
    </contour>
    <contour>
      <point x="322" y="724" type="curve"/>
      <point x="355" y="725" type="line"/>
      <point x="306" y="783"/>
      <point x="258" y="842"/>
      <point x="210" y="899" type="curve"/>
      <point x="167" y="899" type="line"/>
      <point x="219" y="839"/>
      <point x="270" y="782"/>
    </contour>
  </outline>
</glyph>
<glyph name="brevecomb_gravecomb" format="2">
  <anchor x="298.5" y="494" name="_top"/>
  <outline>
    <contour>
      <point x="298" y="585" type="curve" smooth="yes"/>
      <point x="390" y="585"/>
      <point x="441" y="648"/>
      <point x="441" y="758" type="curve"/>
      <point x="412" y="758" type="line"/>
      <point x="412" y="656"/>
      <point x="370" y="616"/>
      <point x="298" y="616" type="curve"/>
      <point x="227" y="616"/>
      <point x="185" y="656"/>
      <point x="185" y="759" type="curve"/>
      <point x="156" y="758" type="line"/>
      <point x="156" y="648"/>
      <point x="208" y="585"/>
    </contour>
    <contour>
      <point x="322" y="764" type="curve"/>
      <point x="355" y="765" type="line"/>
      <point x="306" y="829"/>
      <point x="258" y="894"/>
      <point x="210" y="957" type="curve"/>
      <point x="167" y="956" type="line"/>
      <point x="219" y="891"/>
      <point x="270" y="828"/>
    </contour>
  </outline>
</glyph>
<glyph name="brevecomb_tildecomb.case" format="2">
  <anchor x="299" y="494" name="_top"/>
  <outline>
    <contour>
      <point x="298" y="575" type="curve" smooth="yes"/>
      <point x="390" y="575"/>
      <point x="441" y="638"/>
      <point x="441" y="718" type="curve"/>
      <point x="412" y="718" type="line"/>
      <point x="412" y="646"/>
      <point x="370" y="606"/>
      <point x="298" y="606" type="curve"/>
      <point x="227" y="606"/>
      <point x="185" y="646"/>
      <point x="185" y="719" type="curve"/>
      <point x="156" y="718" type="line"/>
      <point x="156" y="638"/>
      <point x="208" y="575"/>
    </contour>
    <contour>
      <point x="380" y="767" type="curve" smooth="yes"/>
      <point x="432" y="767"/>
      <point x="463" y="806"/>
      <point x="463" y="878" type="curve"/>
      <point x="434" y="878" type="line"/>
      <point x="434" y="822"/>
      <point x="420" y="798"/>
      <point x="376" y="798" type="curve"/>
      <point x="320" y="798"/>
      <point x="295" y="891"/>
      <point x="218" y="891" type="curve" smooth="yes"/>
      <point x="166" y="891"/>
      <point x="135" y="852"/>
      <point x="135" y="780" type="curve"/>
      <point x="164" y="780" type="line"/>
      <point x="164" y="836"/>
      <point x="178" y="860"/>
      <point x="222" y="860" type="curve"/>
      <point x="278" y="860"/>
      <point x="303" y="767"/>
    </contour>
  </outline>
</glyph>
<glyph name="circumflexcomb_acutecomb.case" format="2">
  <anchor x="300" y="494" name="_top"/>
  <outline>
    <contour>
      <point x="400" y="710" type="curve"/>
      <point x="433" y="711" type="line"/>
      <point x="485" y="769"/>
      <point x="536" y="826"/>
      <point x="588" y="885" type="curve"/>
      <point x="545" y="885" type="line"/>
      <point x="497" y="827"/>
      <point x="449" y="769"/>
    </contour>
    <contour>
      <point x="133" y="577" type="curve"/>
      <point x="166" y="577" type="line"/>
      <point x="218" y="635"/>
      <point x="267" y="690"/>
      <point x="319" y="750" type="curve"/>
      <point x="278" y="750" type="line"/>
      <point x="229" y="692"/>
      <point x="182" y="634"/>
    </contour>
    <contour>
      <point x="431" y="575" type="curve"/>
      <point x="464" y="576" type="line"/>
      <point x="415" y="634"/>
      <point x="367" y="692"/>
      <point x="319" y="750" type="curve"/>
      <point x="278" y="750" type="line"/>
      <point x="330" y="690"/>
      <point x="379" y="634"/>
    </contour>
  </outline>
</glyph>
<glyph name="circumflexcomb_gravecomb.case" format="2">
  <anchor x="300" y="494" name="_top"/>
  <outline>
    <contour>
      <point x="467" y="711" type="curve"/>
      <point x="500" y="712" type="line"/>
      <point x="451" y="770"/>
      <point x="403" y="829"/>
      <point x="355" y="886" type="curve"/>
      <point x="312" y="886" type="line"/>
      <point x="364" y="826"/>
      <point x="415" y="769"/>
    </contour>
    <contour>
      <point x="133" y="577" type="curve"/>
      <point x="166" y="577" type="line"/>
      <point x="218" y="635"/>
      <point x="267" y="690"/>
      <point x="319" y="750" type="curve"/>
      <point x="278" y="750" type="line"/>
      <point x="229" y="692"/>
      <point x="182" y="634"/>
    </contour>
    <contour>
      <point x="431" y="575" type="curve"/>
      <point x="464" y="576" type="line"/>
      <point x="415" y="634"/>
      <point x="367" y="692"/>
      <point x="319" y="750" type="curve"/>
      <point x="278" y="750" type="line"/>
      <point x="330" y="690"/>
      <point x="379" y="634"/>
    </contour>
  </outline>
</glyph>
<glyph name="circumflexcomb_gravecomb" format="2">
  <anchor x="298.5" y="494" name="_top"/>
  <outline>
    <contour>
      <point x="466" y="740" type="curve"/>
      <point x="499" y="741" type="line"/>
      <point x="450" y="805"/>
      <point x="402" y="870"/>
      <point x="354" y="933" type="curve"/>
      <point x="311" y="932" type="line"/>
      <point x="363" y="867"/>
      <point x="414" y="804"/>
    </contour>
    <contour>
      <point x="133" y="587" type="curve"/>
      <point x="166" y="587" type="line"/>
      <point x="218" y="651"/>
      <point x="267" y="712"/>
      <point x="319" y="777" type="curve"/>
      <point x="278" y="777" type="line"/>
      <point x="229" y="714"/>
      <point x="182" y="650"/>
    </contour>
    <contour>
      <point x="431" y="585" type="curve"/>
      <point x="464" y="586" type="line"/>
      <point x="415" y="650"/>
      <point x="367" y="714"/>
      <point x="319" y="777" type="curve"/>
      <point x="278" y="777" type="line"/>
      <point x="330" y="712"/>
      <point x="379" y="650"/>
    </contour>
  </outline>
</glyph>
<glyph name="circumflexcomb_hookabovecomb" format="2">
  <anchor x="298.5" y="494" name="_top"/>
  <outline>
    <contour>
      <point x="431" y="585" type="curve"/>
      <point x="464" y="586" type="line"/>
      <point x="415" y="650"/>
      <point x="367" y="714"/>
      <point x="319" y="777" type="curve"/>
      <point x="278" y="777" type="line"/>
      <point x="330" y="712"/>
      <point x="379" y="650"/>
    </contour>
    <contour>
      <point x="133" y="587" type="curve"/>
      <point x="166" y="587" type="line"/>
      <point x="218" y="651"/>
      <point x="267" y="712"/>
      <point x="319" y="777" type="curve"/>
      <point x="278" y="777" type="line"/>
      <point x="229" y="714"/>
      <point x="182" y="650"/>
    </contour>
    <contour>
      <point x="423" y="740" type="line"/>
      <point x="453" y="740" type="line"/>
      <point x="453" y="775" type="line"/>
      <point x="489" y="790"/>
      <point x="541" y="817"/>
      <point x="541" y="873" type="curve" smooth="yes"/>
      <point x="541" y="925"/>
      <point x="494" y="950"/>
      <point x="447" y="950" type="curve" smooth="yes"/>
      <point x="413" y="950"/>
      <point x="378" y="937"/>
      <point x="355" y="925" type="curve"/>
      <point x="358" y="893" type="line"/>
      <point x="392" y="911"/>
      <point x="418" y="919"/>
      <point x="446" y="919" type="curve"/>
      <point x="480" y="919"/>
      <point x="510" y="907"/>
      <point x="510" y="873" type="curve" smooth="yes"/>
      <point x="510" y="836"/>
      <point x="473" y="810"/>
      <point x="423" y="793" type="curve"/>
    </contour>
  </outline>
</glyph>
<glyph name="circumflexcomb_tildecomb.case" format="2">
  <anchor x="300" y="494" name="_top"/>
  <outline>
    <contour>
      <point x="133" y="577" type="curve"/>
      <point x="166" y="577" type="line"/>
      <point x="218" y="635"/>
      <point x="267" y="690"/>
      <point x="319" y="750" type="curve"/>
      <point x="278" y="750" type="line"/>
      <point x="229" y="692"/>
      <point x="182" y="634"/>
    </contour>
    <contour>
      <point x="431" y="575" type="curve"/>
      <point x="464" y="576" type="line"/>
      <point x="415" y="634"/>
      <point x="367" y="692"/>
      <point x="319" y="750" type="curve"/>
      <point x="278" y="750" type="line"/>
      <point x="330" y="690"/>
      <point x="379" y="634"/>
    </contour>
    <contour>
      <point x="380" y="777" type="curve" smooth="yes"/>
      <point x="432" y="777"/>
      <point x="463" y="816"/>
      <point x="463" y="888" type="curve"/>
      <point x="434" y="888" type="line"/>
      <point x="434" y="832"/>
      <point x="420" y="808"/>
      <point x="376" y="808" type="curve"/>
      <point x="320" y="808"/>
      <point x="295" y="901"/>
      <point x="218" y="901" type="curve" smooth="yes"/>
      <point x="166" y="901"/>
      <point x="135" y="862"/>
      <point x="135" y="790" type="curve"/>
      <point x="164" y="790" type="line"/>
      <point x="164" y="846"/>
      <point x="178" y="870"/>
      <point x="222" y="870" type="curve"/>
      <point x="278" y="870"/>
      <point x="303" y="777"/>
    </contour>
  </outline>
</glyph>
<glyph name="circumflexcomb_tildecomb" format="2">
  <anchor x="298.5" y="494" name="_top"/>
  <outline>
    <contour>
      <point x="380" y="807" type="curve" smooth="yes"/>
      <point x="432" y="807"/>
      <point x="463" y="846"/>
      <point x="463" y="918" type="curve"/>
      <point x="434" y="918" type="line"/>
      <point x="434" y="862"/>
      <point x="420" y="838"/>
      <point x="376" y="838" type="curve"/>
      <point x="320" y="838"/>
      <point x="295" y="931"/>
      <point x="218" y="931" type="curve" smooth="yes"/>
      <point x="166" y="931"/>
      <point x="135" y="892"/>
      <point x="135" y="820" type="curve"/>
      <point x="164" y="820" type="line"/>
      <point x="164" y="876"/>
      <point x="178" y="900"/>
      <point x="222" y="900" type="curve"/>
      <point x="278" y="900"/>
      <point x="303" y="807"/>
    </contour>
    <contour>
      <point x="133" y="587" type="curve"/>
      <point x="166" y="587" type="line"/>
      <point x="218" y="651"/>
      <point x="267" y="712"/>
      <point x="319" y="777" type="curve"/>
      <point x="278" y="777" type="line"/>
      <point x="229" y="714"/>
      <point x="182" y="650"/>
    </contour>
    <contour>
      <point x="431" y="585" type="curve"/>
      <point x="464" y="586" type="line"/>
      <point x="415" y="650"/>
      <point x="367" y="714"/>
      <point x="319" y="777" type="curve"/>
      <point x="278" y="777" type="line"/>
      <point x="330" y="712"/>
      <point x="379" y="650"/>
    </contour>
  </outline>
</glyph>
<glyph name="colonsign.BRACKET.140" format="2">
  <advance width="656"/>
  <outline>
    <contour>
      <point x="399" y="-9" type="curve" smooth="yes"/>
      <point x="466" y="-9"/>
      <point x="541" y="6"/>
      <point x="597" y="45" type="curve"/>
      <point x="591" y="79" type="line"/>
      <point x="532" y="37"/>
      <point x="462" y="23"/>
      <point x="397" y="23" type="curve"/>
      <point x="198" y="23"/>
      <point x="92" y="166"/>
      <point x="92" y="344" type="curve" smooth="yes"/>
      <point x="92" y="537"/>
      <point x="213" y="664"/>
      <point x="385" y="664" type="curve"/>
      <point x="452" y="664"/>
      <point x="524" y="647"/>
      <point x="597" y="604" type="curve"/>
      <point x="602" y="638" type="line"/>
      <point x="558" y="663"/>
      <point x="478" y="696"/>
      <point x="386" y="696" type="curve" smooth="yes"/>
      <point x="200" y="696"/>
      <point x="60" y="553"/>
      <point x="60" y="345" type="curve" smooth="yes"/>
      <point x="60" y="147"/>
      <point x="189" y="-9"/>
    </contour>
    <contour>
      <point x="183" y="-137" type="curve"/>
      <point x="214" y="-137" type="line"/>
      <point x="227" y="-76"/>
      <point x="241" y="-11"/>
      <point x="253" y="45" type="curve"/>
      <point x="222" y="45" type="line"/>
      <point x="210" y="-11"/>
      <point x="196" y="-76"/>
    </contour>
    <contour>
      <point x="310" y="-137" type="curve"/>
      <point x="341" y="-137" type="line"/>
      <point x="351" y="-90"/>
      <point x="362" y="-38"/>
      <point x="372" y="9" type="curve"/>
      <point x="341" y="9" type="line"/>
      <point x="331" y="-38"/>
      <point x="320" y="-90"/>
    </contour>
    <contour>
      <point x="356" y="675" type="curve"/>
      <point x="387" y="675" type="line"/>
      <point x="396" y="717"/>
      <point x="405" y="761"/>
      <point x="414" y="803" type="curve"/>
      <point x="383" y="803" type="line"/>
      <point x="374" y="761"/>
      <point x="365" y="717"/>
    </contour>
    <contour>
      <point x="480" y="664" type="curve"/>
      <point x="511" y="664" type="line"/>
      <point x="521" y="710"/>
      <point x="531" y="757"/>
      <point x="541" y="803" type="curve"/>
      <point x="510" y="803" type="line"/>
      <point x="500" y="757"/>
      <point x="490" y="710"/>
    </contour>
  </outline>
</glyph>
<glyph name="dblgravecomb.case" format="2">
  <anchor x="300" y="494" name="_top"/>
  <anchor x="299" y="716" name="top"/>
  <outline>
    <contour>
      <point x="222" y="576" type="curve"/>
      <point x="255" y="577" type="line"/>
      <point x="206" y="635"/>
      <point x="158" y="694"/>
      <point x="110" y="751" type="curve"/>
      <point x="67" y="751" type="line"/>
      <point x="119" y="691"/>
      <point x="170" y="634"/>
    </contour>
    <contour>
      <point x="389" y="576" type="curve"/>
      <point x="419" y="577" type="line"/>
      <point x="377" y="636"/>
      <point x="335" y="694"/>
      <point x="294" y="751" type="curve"/>
      <point x="253" y="751" type="line"/>
      <point x="299" y="691"/>
      <point x="344" y="634"/>
    </contour>
  </outline>
</glyph>
<glyph name="dieresiscomb.narrow" format="2">
  <anchor x="299" y="494" name="_top"/>
  <anchor x="298" y="675" name="top"/>
  <outline>
    <contour>
      <point x="378" y="628" type="curve" smooth="yes"/>
      <point x="400" y="628"/>
      <point x="414" y="642"/>
      <point x="414" y="669" type="curve" smooth="yes"/>
      <point x="414" y="697"/>
      <point x="400" y="711"/>
      <point x="379" y="711" type="curve" smooth="yes"/>
      <point x="358" y="711"/>
      <point x="343" y="698"/>
      <point x="343" y="669" type="curve" smooth="yes"/>
      <point x="343" y="642"/>
      <point x="358" y="628"/>
    </contour>
    <contour>
      <point x="218" y="628" type="curve" smooth="yes"/>
      <point x="240" y="628"/>
      <point x="254" y="642"/>
      <point x="254" y="669" type="curve" smooth="yes"/>
      <point x="254" y="697"/>
      <point x="240" y="711"/>
      <point x="219" y="711" type="curve" smooth="yes"/>
      <point x="198" y="711"/>
      <point x="183" y="698"/>
      <point x="183" y="669" type="curve" smooth="yes"/>
      <point x="183" y="642"/>
      <point x="198" y="628"/>
    </contour>
  </outline>
</glyph>
<glyph name="hookabovecomb.case" format="2">
  <anchor x="300" y="494" name="_top"/>
  <anchor x="299" y="713" name="top"/>
  <outline>
    <contour>
      <point x="279" y="576" type="line"/>
      <point x="309" y="576" type="line"/>
      <point x="309" y="611" type="line"/>
      <point x="345" y="616"/>
      <point x="397" y="643"/>
      <point x="397" y="699" type="curve" smooth="yes"/>
      <point x="397" y="751"/>
      <point x="350" y="776"/>
      <point x="303" y="776" type="curve" smooth="yes"/>
      <point x="269" y="776"/>
      <point x="234" y="763"/>
      <point x="211" y="751" type="curve"/>
      <point x="214" y="719" type="line"/>
      <point x="248" y="737"/>
      <point x="274" y="745"/>
      <point x="302" y="745" type="curve"/>
      <point x="336" y="745"/>
      <point x="366" y="733"/>
      <point x="366" y="699" type="curve" smooth="yes"/>
      <point x="366" y="662"/>
      <point x="329" y="636"/>
      <point x="279" y="629" type="curve"/>
    </contour>
  </outline>
</glyph>
<glyph name="hungarumlautcomb.case" format="2">
  <anchor x="300" y="494" name="_top"/>
  <anchor x="299" y="716" name="top"/>
  <outline>
    <contour>
      <point x="344" y="576" type="curve"/>
      <point x="377" y="577" type="line"/>
      <point x="429" y="635"/>
      <point x="480" y="692"/>
      <point x="532" y="751" type="curve"/>
      <point x="489" y="751" type="line"/>
      <point x="441" y="693"/>
      <point x="393" y="634"/>
    </contour>
    <contour>
      <point x="180" y="576" type="curve"/>
      <point x="211" y="577" type="line"/>
      <point x="257" y="635"/>
      <point x="301" y="692"/>
      <point x="346" y="751" type="curve"/>
      <point x="305" y="751" type="line"/>
      <point x="264" y="692"/>
      <point x="223" y="635"/>
    </contour>
  </outline>
</glyph>
<glyph name="macroncomb.case" format="2">
  <anchor x="300" y="494" name="_top"/>
  <anchor x="300" y="658" name="top"/>
  <outline>
    <contour>
      <point x="154" y="640" type="line"/>
      <point x="198" y="640"/>
      <point x="247" y="640"/>
      <point x="300" y="640" type="curve"/>
      <point x="353" y="640"/>
      <point x="402" y="640"/>
      <point x="446" y="640" type="curve"/>
      <point x="446" y="668" type="line"/>
      <point x="402" y="668"/>
      <point x="353" y="668"/>
      <point x="300" y="668" type="curve"/>
      <point x="247" y="668"/>
      <point x="198" y="668"/>
      <point x="154" y="668" type="curve"/>
    </contour>
  </outline>
</glyph>
<glyph name="ogonekcomb.a" format="2">
  <anchor x="299" y="0" name="_ogonek"/>
  <outline>
    <contour>
      <point x="251" y="-200" type="curve" smooth="yes"/>
      <point x="268" y="-200"/>
      <point x="288" y="-197"/>
      <point x="303" y="-193" type="curve"/>
      <point x="303" y="-163" type="line"/>
      <point x="293" y="-167"/>
      <point x="275" y="-171"/>
      <point x="251" y="-171" type="curve" smooth="yes"/>
      <point x="216" y="-171"/>
      <point x="193" y="-156"/>
      <point x="193" y="-123" type="curve" smooth="yes"/>
      <point x="193" y="-80"/>
      <point x="242" y="-31"/>
      <point x="299" y="0" type="curve"/>
      <point x="281" y="21" type="line"/>
      <point x="272" y="21" type="line"/>
      <point x="272" y="10" type="line"/>
      <point x="194" y="-37"/>
      <point x="162" y="-81"/>
      <point x="162" y="-126" type="curve" smooth="yes"/>
      <point x="162" y="-172"/>
      <point x="198" y="-200"/>
    </contour>
  </outline>
</glyph>
<glyph name="one.dnom" format="2">
  <advance width="303"/>
  <outline>
    <contour>
      <point x="38" y="345" type="line"/>
      <point x="95" y="376"/>
      <point x="146" y="404"/>
      <point x="192" y="429" type="curve"/>
      <point x="192" y="460" type="line"/>
      <point x="139" y="431"/>
      <point x="85" y="402"/>
      <point x="30" y="372" type="curve"/>
    </contour>
    <contour>
      <point x="179" y="0" type="curve"/>
      <point x="208" y="0" type="line"/>
      <point x="208" y="50"/>
      <point x="208" y="93"/>
      <point x="208" y="148" type="curve"/>
      <point x="208" y="300" type="line"/>
      <point x="208" y="356"/>
      <point x="208" y="410"/>
      <point x="208" y="459" type="curve"/>
      <point x="192" y="460" type="line"/>
      <point x="179" y="444" type="line"/>
      <point x="179" y="395"/>
      <point x="179" y="346"/>
      <point x="179" y="297" type="curve"/>
      <point x="179" y="148" type="line"/>
      <point x="179" y="93"/>
      <point x="179" y="50"/>
    </contour>
  </outline>
</glyph>
<glyph name="seven.dnom" format="2">
  <advance width="374"/>
  <outline>
    <contour>
      <point x="92" y="0" type="curve"/>
      <point x="126" y="0" type="line"/>
      <point x="153" y="56"/>
      <point x="181" y="114"/>
      <point x="208" y="170" type="curve"/>
      <point x="255" y="268" type="line"/>
      <point x="282" y="323"/>
      <point x="310" y="381"/>
      <point x="337" y="436" type="curve"/>
      <point x="337" y="459" type="line"/>
      <point x="20" y="459" type="line"/>
      <point x="20" y="430" type="line"/>
      <point x="86" y="430"/>
      <point x="162" y="430"/>
      <point x="203" y="430" type="curve"/>
      <point x="310" y="430" type="line"/>
      <point x="305" y="438" type="line"/>
      <point x="288" y="403"/>
      <point x="271" y="367"/>
      <point x="254" y="332" type="curve"/>
      <point x="184" y="187" type="line"/>
      <point x="154" y="126"/>
      <point x="124" y="65"/>
    </contour>
  </outline>
</glyph>
<glyph name="three.dnom" format="2">
  <advance width="403"/>
  <outline>
    <contour>
      <point x="196" y="-6" type="curve" smooth="yes"/>
      <point x="304" y="-6"/>
      <point x="358" y="50"/>
      <point x="358" y="121" type="curve" smooth="yes"/>
      <point x="358" y="195"/>
      <point x="297" y="233"/>
      <point x="248" y="242" type="curve"/>
      <point x="248" y="246" type="line"/>
      <point x="296" y="257"/>
      <point x="340" y="300"/>
      <point x="340" y="358" type="curve" smooth="yes"/>
      <point x="340" y="425"/>
      <point x="280" y="467"/>
      <point x="200" y="467" type="curve" smooth="yes"/>
      <point x="146" y="467"/>
      <point x="90" y="447"/>
      <point x="50" y="422" type="curve"/>
      <point x="54" y="389" type="line"/>
      <point x="102" y="421"/>
      <point x="152" y="437"/>
      <point x="198" y="437" type="curve"/>
      <point x="265" y="437"/>
      <point x="309" y="411"/>
      <point x="309" y="355" type="curve" smooth="yes"/>
      <point x="309" y="299"/>
      <point x="264" y="256"/>
      <point x="162" y="256" type="curve"/>
      <point x="150" y="256"/>
      <point x="138" y="256"/>
      <point x="126" y="256" type="curve"/>
      <point x="126" y="227" type="line"/>
      <point x="138" y="227"/>
      <point x="150" y="227"/>
      <point x="162" y="227" type="curve"/>
      <point x="265" y="228"/>
      <point x="327" y="190"/>
      <point x="327" y="122" type="curve" smooth="yes"/>
      <point x="327" y="65"/>
      <point x="290" y="24"/>
      <point x="194" y="24" type="curve"/>
      <point x="147" y="24"/>
      <point x="94" y="36"/>
      <point x="43" y="64" type="curve"/>
      <point x="38" y="33" type="line"/>
      <point x="80" y="10"/>
      <point x="141" y="-6"/>
    </contour>
  </outline>
</glyph>
<glyph name="tildecomb.case" format="2">
  <anchor x="300" y="494" name="_top"/>
  <anchor x="300" y="665" name="top"/>
  <outline>
    <contour>
      <point x="381" y="578" type="curve" smooth="yes"/>
      <point x="433" y="578"/>
      <point x="464" y="617"/>
      <point x="464" y="689" type="curve"/>
      <point x="435" y="689" type="line"/>
      <point x="435" y="633"/>
      <point x="421" y="609"/>
      <point x="377" y="609" type="curve"/>
      <point x="321" y="609"/>
      <point x="296" y="702"/>
      <point x="219" y="702" type="curve" smooth="yes"/>
      <point x="167" y="702"/>
      <point x="136" y="663"/>
      <point x="136" y="591" type="curve"/>
      <point x="165" y="591" type="line"/>
      <point x="165" y="647"/>
      <point x="179" y="671"/>
      <point x="223" y="671" type="curve"/>
      <point x="279" y="671"/>
      <point x="304" y="578"/>
    </contour>
  </outline>
</glyph>
<glyph name="two.dnom" format="2">
  <advance width="389"/>
  <outline>
    <contour>
      <point x="37" y="0" type="line"/>
      <point x="342" y="0" type="line"/>
      <point x="342" y="29" type="line"/>
      <point x="286" y="29"/>
      <point x="229" y="29"/>
      <point x="172" y="29" type="curve"/>
      <point x="69" y="29" type="line"/>
      <point x="77" y="21" type="line"/>
      <point x="160" y="91" type="line"/>
      <point x="272" y="185"/>
      <point x="331" y="262"/>
      <point x="331" y="339" type="curve" smooth="yes"/>
      <point x="331" y="417"/>
      <point x="279" y="467"/>
      <point x="188" y="467" type="curve" smooth="yes"/>
      <point x="133" y="467"/>
      <point x="76" y="448"/>
      <point x="35" y="425" type="curve"/>
      <point x="40" y="392" type="line"/>
      <point x="89" y="423"/>
      <point x="141" y="437"/>
      <point x="186" y="437" type="curve"/>
      <point x="265" y="437"/>
      <point x="300" y="403"/>
      <point x="300" y="337" type="curve" smooth="yes"/>
      <point x="300" y="262"/>
      <point x="236" y="192"/>
      <point x="128" y="101" type="curve"/>
      <point x="97" y="75"/>
      <point x="67" y="49"/>
      <point x="37" y="24" type="curve"/>
    </contour>
  </outline>
</glyph>
